<svg width="1168" height="511" viewBox="0 0 1168 511" fill="none" xmlns="http://www.w3.org/2000/svg">
<path fill-rule="evenodd" clip-rule="evenodd" d="M910.848 114.999C917.511 111.904 939.003 129.818 925.019 141.917C899.211 171.554 888.7 233.454 912.725 272.377C922.767 288.696 943.038 297.887 963.122 296.48C1050.03 290.853 1136.74 129.068 1129.23 15.677C1127.92 5.92298 1137.4 1.89007 1146.97 0.577024C1156.54 -0.736017 1166.68 0.577025 1167.99 10.4248C1168.37 76.5458 1149.88 158.142 1090.85 240.77C1025.25 332.589 941.349 355.004 898.554 313.362C872.088 287.664 858.762 234.58 873.027 180.464C858.856 206.912 826.384 220.23 791.472 207.1C771.201 234.017 712.17 283.537 693.963 233.736C679.229 193.5 708.134 149.701 672.753 163.582C658.676 169.021 630.896 182.808 629.395 192.562C629.301 193.313 631.46 192.844 634.275 193.313C645.631 195.376 661.585 210.195 649.572 240.676C635.12 277.347 605.182 288.79 581.156 282.131C571.678 279.505 561.73 274.721 556.005 259.715C536.203 304.265 499.883 343.562 457.182 296.574C455.211 294.323 453.334 291.885 451.739 289.259C449.299 293.573 446.671 297.887 444.137 302.108C432.406 321.991 413.073 355.848 388.672 372.168C377.598 379.577 365.022 380.046 352.353 379.765C348.223 386.893 345.22 389.425 340.152 395.896C318.473 424.127 283.186 446.823 250.808 457.515C248.462 458.266 246.209 459.016 243.957 459.673C242.643 460.986 241.329 462.392 240.015 463.612C229.692 473.553 218.336 482.369 205.854 489.497C193.278 496.813 179.576 502.534 164.654 506.286L164.373 506.379C137.532 513.226 114.07 512.194 93.8923 505.066C60.2005 493.155 36.9259 464.925 22.0039 428.347C7.83274 393.833 1.16946 352.097 0.137124 310.08C-1.64601 236.549 14.1206 160.956 38.146 123.815C43.3077 115.843 53.7249 113.405 61.7021 118.282C69.5854 101.494 78.7826 86.2999 88.7306 72.7005C104.028 51.7856 121.39 34.9037 139.409 22.6174C158.179 9.95589 178.075 2.26522 197.689 0.389447C220.87 -1.86148 254.562 5.7354 274.458 20.8354C368.682 92.3023 328.609 306.703 280.464 403.493C297.451 390.738 309.933 379.108 321.382 360.913C318.661 356.88 317.159 352.285 316.502 347.22C314.813 333.996 319.13 315.613 326.919 304.452C335.178 292.541 350.757 286.726 354.605 286.257C365.961 284.757 372.905 289.821 374.501 301.639C385.2 383.422 441.697 224.92 446.202 213.29C444.325 199.221 446.295 184.028 453.709 171.835C456.15 167.802 458.965 164.52 461.874 161.987C466.004 158.423 470.602 156.36 475.201 155.703C479.987 155.047 484.68 155.985 488.903 158.705C493.22 161.425 500.916 165.645 502.136 170.897C508.236 196.689 470.696 218.636 481.864 261.591C482.99 265.718 486.181 273.314 488.434 275.659C499.696 288.039 527.099 249.305 532.918 240.207C535.546 236.08 538.08 231.672 540.614 227.17C551.876 208.6 556.474 183.746 558.257 162.456C559.196 151.389 558.539 142.385 570.552 140.135C588.664 136.664 603.586 130.756 605.933 154.953C606.402 159.643 605.557 162.831 602.929 174.93C604.243 176.712 641.877 139.572 673.41 126.348C689.927 119.876 714.047 112.936 726.435 117.25C736.477 120.72 741.075 133.476 741.357 144.355C741.732 154.484 721.648 180.745 724.276 195.939C726.529 208.788 732.16 213.852 738.823 214.04C750.835 214.415 773.829 194.344 779.084 185.716C759.376 154.109 816.248 72.8881 865.425 66.2291C876.781 64.7285 893.111 66.0415 901.369 74.7639C910.754 84.7055 916.198 103.932 910.848 115.093V114.999ZM103.934 165.364C55.7896 231.203 71.6501 366.447 135.749 414.842C162.214 434.912 194.311 434.443 225.281 427.409C288.535 354.911 338.275 113.405 253.623 49.2533C241.048 39.7807 215.708 34.2472 201.162 35.654C187.366 36.967 172.913 42.6881 158.742 52.2546C143.82 62.29 129.555 76.3583 116.698 93.803C88.4491 132.35 117.542 146.7 103.934 165.27V165.364ZM171.787 466.332C150.577 464.081 131.526 455.921 115.008 443.353C40.2107 392.051 42.9323 301.357 38.0521 269.938C31.2012 340.749 42.0876 385.017 54.1003 414.466C65.3622 442.134 82.0673 463.049 105.154 471.302C119.044 476.179 135.749 476.742 155.739 471.584H155.927C161.37 470.083 166.625 468.395 171.693 466.425L171.787 466.332ZM610.156 233.548C613.253 216.479 598.143 217.323 591.198 224.732C585.474 230.734 580.03 243.865 589.978 248.273C596.829 251.368 607.903 246.116 610.156 233.548ZM857.166 137.415C861.953 131.037 869.461 105.245 853.319 110.591C849.189 111.904 844.121 117.813 840.837 121.189C829.575 136.571 827.886 147.731 833.516 152.046C839.147 156.36 850.409 148.763 857.166 137.321V137.415Z" fill="url(#paint0_radial_1948_4177)" fill-opacity="0.1"/>
<defs>
<radialGradient id="paint0_radial_1948_4177" cx="0" cy="0" r="1" gradientUnits="userSpaceOnUse" gradientTransform="translate(484.5 435) rotate(-48.1716) scale(683.759 1046.46)">
<stop stop-color="#0A65D1"/>
<stop offset="1" stop-color="#00DADE"/>
</radialGradient>
</defs>
</svg>
