<svg width="559" height="245" viewBox="0 0 559 245" fill="none" xmlns="http://www.w3.org/2000/svg">
<path fill-rule="evenodd" clip-rule="evenodd" d="M435.928 55.1366C439.117 53.6527 449.403 62.2414 442.71 68.0422C430.359 82.2518 425.328 111.93 436.826 130.592C441.632 138.416 451.334 142.823 460.946 142.148C502.538 139.45 544.04 61.8817 540.447 7.51637C539.818 2.83978 544.355 0.906196 548.936 0.276655C553.518 -0.352885 558.369 0.276656 558.997 4.99821C559.177 36.7001 550.329 75.8215 522.077 115.438C490.681 159.46 450.526 170.208 430.044 150.242C417.378 137.921 411 112.47 417.827 86.5237C411.045 99.2044 395.504 105.59 378.795 99.2944C369.094 112.2 340.842 135.943 332.128 112.065C325.076 92.7741 338.91 71.7745 321.977 78.4296C315.24 81.0377 301.944 87.6479 301.226 92.3245C301.181 92.6842 302.214 92.4594 303.561 92.6842C308.996 93.6735 316.632 100.778 310.883 115.393C303.966 132.975 289.638 138.461 278.139 135.268C273.603 134.009 268.842 131.716 266.102 124.521C256.624 145.88 239.242 164.722 218.805 142.193C217.862 141.114 216.964 139.945 216.2 138.686C215.032 140.754 213.775 142.823 212.562 144.846C206.948 154.379 197.695 170.612 186.017 178.437C180.717 181.989 174.698 182.214 168.634 182.079C166.658 185.496 165.221 186.711 162.795 189.813C152.42 203.348 135.532 214.23 120.036 219.357C118.913 219.716 117.835 220.076 116.757 220.391C116.128 221.02 115.499 221.695 114.87 222.28C109.93 227.046 104.495 231.273 98.521 234.69C92.5023 238.198 85.9446 240.941 78.803 242.74L78.6682 242.785C65.8223 246.067 54.5934 245.573 44.9365 242.155C28.8117 236.444 17.6726 222.909 10.531 205.372C3.74872 188.824 0.5597 168.814 0.0656269 148.668C-0.787773 113.414 6.75808 77.1705 18.2565 59.3635C20.7269 55.5413 25.7125 54.3722 29.5304 56.7105C33.3033 48.6613 37.705 41.3766 42.4661 34.8564C49.7874 24.8287 58.0968 16.7346 66.7206 10.8439C75.7038 4.77337 85.2259 1.08606 94.6133 0.186721C105.708 -0.892491 121.832 2.74985 131.354 9.98956C176.45 44.2545 157.271 147.049 134.229 193.456C142.359 187.34 148.333 181.764 153.812 173.041C152.51 171.107 151.791 168.904 151.477 166.475C150.668 160.135 152.734 151.321 156.462 145.97C160.415 140.259 167.871 137.471 169.712 137.247C175.147 136.527 178.471 138.955 179.235 144.621C184.355 183.833 211.394 107.838 213.55 102.262C212.652 95.5171 213.595 88.2324 217.144 82.3867C218.311 80.4531 219.659 78.8793 221.051 77.6652C223.027 75.9564 225.228 74.9671 227.429 74.6524C229.72 74.3376 231.966 74.7873 233.987 76.0913C236.053 77.3954 239.736 79.4189 240.32 81.937C243.24 94.303 225.273 104.825 230.618 125.42C231.157 127.399 232.684 131.041 233.762 132.165C239.152 138.101 252.268 119.53 255.052 115.168C256.31 113.189 257.523 111.076 258.736 108.917C264.125 100.014 266.326 88.0975 267.18 77.89C267.629 72.5839 267.314 68.267 273.064 67.1878C281.732 65.524 288.874 62.6911 289.997 74.2926C290.221 76.541 289.817 78.0699 288.56 83.8706C289.188 84.725 307.2 66.918 322.291 60.5776C330.196 57.4749 341.74 54.1473 347.669 56.2158C352.475 57.8796 354.676 63.9951 354.81 69.2113C354.99 74.0678 345.378 86.6586 346.636 93.9433C347.714 100.104 350.409 102.532 353.598 102.622C359.347 102.802 370.351 93.1788 372.866 89.0418C363.434 73.8879 390.653 34.9463 414.189 31.7537C419.624 31.0342 427.439 31.6637 431.392 35.8457C435.883 40.6122 438.488 49.8305 435.928 55.1816V55.1366ZM49.7425 79.284C26.7007 110.851 34.2914 175.694 64.9689 198.897C77.6351 208.52 92.9963 208.295 107.819 204.922C138.092 170.163 161.897 54.3722 121.383 23.6146C115.364 19.0729 103.237 16.4199 96.2752 17.0944C89.6726 17.7239 82.7555 20.4669 75.9733 25.0536C68.8317 29.8651 62.0045 36.6101 55.851 44.974C42.3314 63.4555 56.2552 70.3355 49.7425 79.239V79.284ZM82.2166 223.584C72.0656 222.504 62.9477 218.592 55.0425 212.567C19.2447 187.97 20.5472 144.486 18.2116 129.422C14.9327 163.373 20.143 184.597 25.8922 198.717C31.2821 211.982 39.2771 222.01 50.3264 225.967C56.9739 228.305 64.9689 228.575 74.536 226.102H74.6258C77.2309 225.382 79.7462 224.573 82.1716 223.629L82.2166 223.584ZM292.018 111.975C293.5 103.791 286.269 104.196 282.945 107.748C280.205 110.626 277.6 116.921 282.361 119.035C285.64 120.519 290.94 118.001 292.018 111.975ZM410.236 65.8838C412.527 62.826 416.12 50.46 408.395 53.0231C406.419 53.6527 403.993 56.4856 402.421 58.1044C397.031 65.479 396.223 70.8301 398.918 72.8986C401.613 74.9671 407.002 71.3248 410.236 65.8388V65.8838Z" fill="url(#paint0_radial_1948_4265)" fill-opacity="0.1"/>
<defs>
<radialGradient id="paint0_radial_1948_4265" cx="0" cy="0" r="1" gradientUnits="userSpaceOnUse" gradientTransform="translate(231.88 208.562) rotate(-48.2225) scale(327.569 501.227)">
<stop stop-color="#0A65D1"/>
<stop offset="1" stop-color="#00DADE"/>
</radialGradient>
</defs>
</svg>
