<svg width="10" height="8" viewBox="0 0 10 8" fill="none" xmlns="http://www.w3.org/2000/svg">
<path d="M8.98329 1.95045L4.10129 6.83145C4.01529 6.9175 3.91318 6.98577 3.80079 7.03234C3.68841 7.07892 3.56794 7.10289 3.44629 7.10289C3.32463 7.10289 3.20417 7.07892 3.09178 7.03234C2.97939 6.98577 2.87728 6.9175 2.79129 6.83145L0.272286 4.31145C0.0985696 4.13773 0.000976563 3.90212 0.000976562 3.65645C0.000976562 3.41078 0.0985696 3.17517 0.272286 3.00145C0.446003 2.82773 0.681614 2.73014 0.927286 2.73014C1.17296 2.73014 1.40857 2.82773 1.58229 3.00145L3.44729 4.86745L7.67429 0.64045C7.848 0.466733 8.08361 0.369141 8.32929 0.369141C8.57496 0.369141 8.81057 0.466733 8.98429 0.64045C9.158 0.814166 9.2556 1.04978 9.2556 1.29545C9.2556 1.54112 9.158 1.77673 8.98429 1.95045H8.98329Z" fill="white"/>
</svg>
