<svg width="787" height="583" viewBox="0 0 787 583" fill="none" xmlns="http://www.w3.org/2000/svg">
<path fill-rule="evenodd" clip-rule="evenodd" d="M0 437.572V441.287C18.1313 463.26 39.2497 483.283 61.0334 501.574C103.466 537.207 152.857 567.788 207.796 578.846C275.215 592.441 349.136 571.926 401.925 528.116C446.361 522.246 488.536 503.607 526.609 480.459C593.71 439.601 653.308 386.285 707.967 329.342C711.428 334.134 715.173 338.763 719.216 343.208C738.53 364.439 761.746 377.642 787 384.888V342.352C784.851 340.67 782.751 338.923 780.705 337.11C765.612 323.775 754.001 307.124 745.487 288.965C748.263 285.889 751.028 282.808 753.781 279.725C764.911 267.261 776.022 254.6 787 241.728V186.048C769.797 209.28 751.837 232.009 733.202 254.183C733.039 253.535 732.88 252.887 732.723 252.238C715.987 182.793 732.178 104.293 775.111 47.2261C778.992 42.0755 782.898 37.3278 787 32.84V0.894531C770.943 9.98298 756.066 21.0755 743.047 34.3019C715.714 62.0161 696.34 96.2833 685.197 133.554C669.189 187.066 667.987 249.919 691.72 301.424C669.146 326.043 645.752 349.873 621.662 372.833C587.689 405.235 551.942 436.089 513.466 463.12C504.643 469.309 499.913 472.495 489.361 479.003C480.948 484.19 472.397 489.151 463.62 493.747C463.213 493.959 462.09 494.537 461.049 495.072C460.872 495.163 460.698 495.253 460.529 495.34C460.141 495.526 459.254 495.963 458.366 496.399C457.445 496.852 456.524 497.305 456.161 497.479C451.932 499.481 447.656 501.392 443.29 503.213C442.965 503.346 442.652 503.472 442.356 503.59C441.096 504.029 439.853 504.5 438.615 504.97C438.035 505.189 437.457 505.409 436.878 505.624C435.809 506.022 434.741 506.366 433.68 506.707C433.133 506.883 432.588 507.058 432.046 507.239C431.76 507.311 431.431 507.394 431.056 507.49C430.853 507.543 430.543 507.603 430.169 507.671C429.845 507.427 426.988 507.553 425.551 508.821C425.303 508.87 424.981 508.93 424.628 508.994C424.101 509.061 423.393 509.155 422.701 509.248C422.475 509.278 422.25 509.308 422.034 509.336C450.359 479.964 472.036 444.852 490.316 408.511C505.234 378.886 518.559 347.667 524.563 314.856C530.566 282 525.427 243.182 486.86 236.128C463.847 231.942 438.379 237.812 416.73 245.457C394.946 253.103 374.48 264.252 356.424 278.678C321.268 306.756 295.663 346.621 288.614 391.355C282.611 429.445 290.615 475.498 317.403 504.76C329.426 517.88 344.676 524.868 361.058 527.81C352.798 535.303 343.96 542.206 334.503 547.992C327.226 552.452 323.952 554.227 317.403 557.048C317.555 556.987 314.467 558.219 313.469 558.649C312.228 559.086 310.747 559.618 310.854 559.597C310.563 559.708 310.104 559.859 309.663 559.998C309.079 560.156 308.492 560.313 307.904 560.47C306.983 560.717 306.058 560.964 305.133 561.22C309.487 560.015 306.712 560.639 303.652 561.328C302.741 561.533 301.805 561.743 301.024 561.913C300.718 561.905 298.147 562.242 296.018 562.521C294.744 562.688 293.629 562.834 293.253 562.873C293.118 562.883 292.828 562.903 292.504 562.926C291.868 562.969 291.097 563.022 291.078 563.032C289.872 563.08 288.658 563.111 287.463 563.143L287.34 563.146C283.52 563.237 279.654 563.146 275.834 562.964C264.191 562.327 249.729 559.642 237.358 556.275C187.694 542.804 142.76 511.996 104.33 478.593C85.6379 462.347 66.9003 444.371 52.1194 426.35C47.034 420.159 32.8664 424.004 25.4016 426.03C24.8552 426.179 24.3448 426.317 23.8765 426.441C22.2056 426.887 4.43774 432.884 0 437.572ZM385.601 502.261C382.921 500.749 380.152 498.902 377.163 496.614C350.739 476.409 340.324 436.544 339.506 404.552C338.46 362.139 356.924 320.272 385.577 290.191C392.444 282.956 399.948 276.357 407.907 270.35C408.966 269.542 410.042 268.767 411.114 267.996C411.792 267.508 412.468 267.021 413.137 266.527C413.641 266.171 414.976 265.293 414.976 265.292C414.975 265.292 414.649 265.505 413.734 266.102C413.868 266.014 414.002 265.926 414.136 265.837C414.7 265.462 415.271 265.083 415.866 264.753C419.858 262.312 423.892 260.001 428.055 257.778C428.496 257.576 429.094 257.309 429.874 256.971C431.319 256.351 434.678 255.367 434.676 255.361C434.675 255.358 433.687 255.641 430.875 256.425C431.133 256.353 431.78 256.082 432.555 255.758C432.842 255.637 433.147 255.51 433.457 255.382C434.121 255.22 434.8 255.044 435.474 254.862C435.561 254.848 435.652 254.833 435.748 254.817C435.989 254.809 436.259 254.799 436.559 254.786C436.58 254.786 436.6 254.785 436.619 254.784C436.674 254.785 436.73 254.786 436.787 254.786H439.239C440.223 254.928 441.095 255.045 441.883 255.15C447.13 255.854 448.654 256.059 454.66 259.61C460.118 262.841 463.529 266.254 466.667 271.442C475.49 286.096 475.354 304.754 473.171 321.137C469.259 350.307 457.662 378.522 445.155 404.916C429.025 439.077 410.131 473.171 385.601 502.261ZM436.741 254.377C436.637 254.243 436.062 254.391 435.306 254.659C435.332 254.657 435.357 254.655 435.383 254.653C435.872 254.543 436.387 254.437 436.741 254.377ZM434.321 255.032C434.094 255.121 433.863 255.215 433.633 255.31C434.133 255.185 434.689 255.043 435.191 254.907C434.801 254.969 434.516 255.009 434.321 255.032ZM428.373 257.608C428.289 257.653 428.208 257.696 428.13 257.737C428.211 257.694 428.292 257.651 428.373 257.608ZM428.045 257.782C427.464 258.086 427.077 258.262 427.03 258.274C426.984 258.286 427.274 258.134 428.045 257.782ZM425.455 508.909C425.442 508.921 425.43 508.934 425.417 508.947C425.43 508.934 425.444 508.921 425.459 508.908C425.458 508.908 425.456 508.909 425.455 508.909ZM425.467 508.901C425.502 508.871 425.543 508.842 425.589 508.813C425.679 508.795 425.759 508.779 425.826 508.764C426.159 508.695 426.496 508.622 426.835 508.548C427.607 508.379 428.388 508.208 429.146 508.082C430.035 507.919 430.297 507.767 430.169 507.671C430.012 507.7 429.843 507.73 429.666 507.761C428.245 508.012 426.313 508.354 425.589 508.813C425.576 508.816 425.564 508.818 425.551 508.821C425.521 508.847 425.492 508.874 425.464 508.901C425.465 508.901 425.466 508.901 425.467 508.901ZM439.772 504.551C439.615 504.592 440.3 504.321 442.279 503.621C440.91 504.162 439.928 504.51 439.772 504.551Z" fill="url(#paint0_radial_1948_3932)"/>
<defs>
<radialGradient id="paint0_radial_1948_3932" cx="0" cy="0" r="1" gradientUnits="userSpaceOnUse" gradientTransform="translate(1098.92 -121.817) rotate(86.3001) scale(706.289 1314.47)">
<stop stop-color="#08A6A9"/>
<stop offset="0.630208" stop-color="#4AD1D2"/>
</radialGradient>
</defs>
</svg>
