<svg width="1319" height="1231" viewBox="0 0 1319 1231" fill="none" xmlns="http://www.w3.org/2000/svg">
<path d="M-971.683 1088.46C-953.4 1110.76 -932.024 1131.05 -909.967 1149.57C-867.534 1185.21 -818.143 1215.79 -763.204 1226.85C-691.664 1241.27 -612.802 1217.29 -559.636 1167.82C-525.981 1136.51 -501.195 1097.29 -480.684 1056.51C-465.766 1026.89 -452.441 995.667 -446.437 962.856C-440.434 930 -445.573 891.182 -484.14 884.128C-507.153 879.941 -532.621 885.812 -554.27 893.457C-576.055 901.103 -596.52 912.252 -614.576 926.678C-649.732 954.756 -675.337 994.621 -682.386 1039.35C-688.389 1077.44 -680.385 1123.5 -653.597 1152.76C-631.995 1176.33 -599.977 1180.11 -569.687 1176.2C-525.026 1170.42 -482.639 1151.71 -444.391 1128.46C-358.07 1075.9 -284.166 1002.72 -217.22 927.725C-156.913 860.191 -97.1531 786.878 -56.2668 705.556C-46.3523 685.852 -32.0262 658.729 -35.892 635.702C-40.8492 606.441 -87.1476 617.59 -105.612 621.003C-150.956 629.377 -195.298 649.127 -227.953 682.302C-255.286 710.016 -274.66 744.283 -285.803 781.554C-306.496 850.726 -302.449 935.506 -251.784 991.208C-181.2 1068.8 -58.4953 1039.17 25.3238 1003.36C60.8889 988.159 94.9077 969.273 127.38 948.385C161.99 926.132 194.145 900.556 228.391 877.757C296.656 832.25 369.014 793.25 438.78 750.063C539.927 687.49 699.833 587.418 655.218 445.116C644.939 412.351 627.339 377.628 596.14 360.381C562.621 341.905 521.371 348.458 486.579 359.38C407.49 384.272 344.864 448.848 298.43 515.152C251.995 581.457 211.427 664.827 210.244 748.333C209.744 782.237 217.203 816.913 237.987 844.355C261.909 875.937 298.157 892.775 336.223 900.784C403.306 914.891 475.573 905.244 542.11 893.093C626.748 877.621 709.657 850.453 786.882 812.408C926.55 743.646 1047.8 641.345 1141.58 517.2C1221.49 411.395 1283.88 288.251 1308.99 157.371C1318.68 106.721 1322.45 54.3876 1315.27 3.10053C1314.08 -5.4549 1260.87 5.14837 1262.55 17.2534C1277.93 126.972 1246.27 240.514 1201.47 339.857C1144.94 465.185 1060.72 578.636 958.249 670.151C903.219 719.3 842.776 762.168 777.695 796.89C745.586 814.001 711.021 829.474 678.822 841.306C643.302 854.366 608.601 864.469 573.582 871.75C511.957 884.629 449.922 893.73 389.025 883.264C354.188 877.257 318.577 863.104 294.882 835.344C248.538 781.053 260.181 699.959 281.557 637.841C307.98 561.115 354.506 487.848 412.129 431.6C425.545 418.494 439.735 406.207 454.925 395.24C456.744 393.92 458.564 392.646 460.428 391.372C464.158 388.732 459.564 391.872 462.702 389.824C466.477 387.367 470.297 384.955 474.209 382.68C477.438 380.768 480.758 379.039 484.078 377.219C489.399 374.306 480.121 378.948 485.579 376.445C487.58 375.535 489.535 374.579 491.536 373.715C493.128 372.987 494.811 372.395 496.403 371.667C498.904 370.529 489.945 373.897 496.767 371.576C498.54 370.984 500.36 370.393 502.133 369.756C505.135 368.663 494.538 372.076 501.587 369.983C502.451 369.71 503.361 369.573 504.225 369.3C508.728 367.981 500.86 369.983 500.814 370.074C501.133 369.482 505.453 369.164 506.044 369.027C511.729 367.799 500.223 369.482 505.271 369.164C507.136 369.027 509.092 368.845 510.911 368.618C502.861 369.756 513.458 368.754 515.868 368.754C520.643 368.754 514.958 368.527 516.823 368.754C518.688 368.982 520.734 369.164 522.69 369.482C525.601 369.938 528.466 370.575 531.286 371.303C534.742 372.213 530.422 370.848 533.787 372.076C535.333 372.622 536.88 373.214 538.38 373.806C567.806 386.093 585.588 414.08 596.822 442.704C606.6 467.597 612.376 493.946 610.011 520.795C607.555 548.282 596.458 574.176 581.404 597.066C544.611 652.995 486.579 693.861 431.276 729.766C365.421 772.544 296.428 810.178 229.71 851.545C163.991 892.32 104.322 942.333 36.057 978.966C22.0038 986.52 8.90561 992.846 -6.51202 999.308C-15.1986 1002.95 -12.9702 1002.13 -21.6568 1005.27C-25.0678 1006.5 -28.5242 1007.73 -31.9352 1008.86C-33.2996 1009.32 -34.6639 1009.73 -35.9828 1010.18C-41.4859 1012.1 -30.9802 1008.82 -38.0295 1010.82C-40.9857 1011.64 -43.8964 1012.51 -46.8526 1013.28C-48.6718 1013.78 -59.132 1016.24 -51.264 1014.46C-57.4038 1015.83 -63.5436 1016.97 -69.6833 1018.06C-62.6795 1016.83 -72.0938 1018.33 -73.822 1018.56C-76.6872 1018.88 -79.5524 1019.15 -82.4631 1019.42C-88.1026 1019.97 -81.4171 1019.56 -86.1015 1019.65C-89.1032 1019.7 -92.1048 1019.83 -95.1065 1019.83C-105.703 1019.83 -110.524 1019.56 -122.531 1017.47C-131.672 1015.87 -139.222 1013.92 -146.999 1011C-162.871 1005.09 -177.607 996.35 -190.296 985.11C-215.173 963.129 -230.591 932.139 -238.277 900.238C-255.013 830.793 -238.822 752.293 -195.89 695.226C-185.293 681.164 -174.514 670.106 -160.052 659.139C-158.232 657.773 -156.413 656.454 -154.594 655.134C-150.546 652.221 -155.822 655.725 -151.547 653.132C-147.636 650.765 -143.724 648.535 -139.722 646.305C-134.356 643.347 -143.042 647.625 -137.403 645.168C-135.492 644.349 -133.628 643.484 -131.718 642.665C-125.351 639.889 -133.4 643.074 -130.717 642.255C-128.034 641.436 -125.351 640.435 -122.758 639.525C-128.261 641.436 -126.306 640.662 -122.212 639.525C-114.936 637.477 -124.714 639.843 -121.621 639.297C-119.256 638.888 -116.8 638.478 -114.481 637.886C-110.479 636.931 -116.164 638.114 -116.618 638.16C-114.89 637.932 -113.207 637.659 -111.479 637.477C-109.251 637.204 -106.977 637.022 -104.748 636.794C-99.7 636.294 -108.341 636.931 -105.067 636.794C-103.793 636.749 -102.52 636.703 -101.201 636.612C-95.152 636.339 -103.793 636.066 -99.1087 636.703C-94.7882 637.295 -99.9274 635.338 -96.8348 637.34C-95.5613 638.205 -94.197 638.842 -92.969 639.798C-91.3772 641.026 -93.0145 638.888 -91.4682 641.573C-90.6041 643.074 -89.8309 644.622 -89.3306 646.305C-83.2363 665.237 -95.061 688.127 -103.156 705.465C-118.756 739.004 -139.04 770.45 -160.142 800.804C-215.309 880.169 -279.39 954.165 -349.338 1020.83C-383.311 1053.23 -419.059 1084.09 -457.534 1111.12C-466.357 1117.31 -471.087 1120.49 -481.639 1127C-490.052 1132.19 -498.603 1137.15 -507.38 1141.75C-508.426 1142.29 -514.202 1145.25 -511.155 1143.7C-508.108 1142.16 -513.793 1144.98 -514.839 1145.48C-519.068 1147.48 -523.344 1149.39 -527.71 1151.21C-531.257 1152.67 -533.258 1153.21 -528.21 1151.44C-530.211 1152.12 -532.167 1152.9 -534.122 1153.62C-536.078 1154.35 -538.033 1154.9 -539.944 1155.58C-542.854 1156.63 -532.667 1153.62 -539.944 1155.49C-540.99 1155.76 -544.855 1156.22 -545.583 1156.95C-543.673 1155.04 -538.625 1155.49 -541.854 1156.08C-542.945 1156.26 -544.082 1156.54 -545.174 1156.76C-546.447 1157.04 -552.451 1158.04 -547.357 1157.22C-542.263 1156.4 -549.312 1157.4 -550.54 1157.54C-551.223 1157.63 -551.95 1157.63 -552.632 1157.72C-556.635 1158.4 -547.129 1157.72 -551.177 1157.63C-552.723 1157.63 -554.224 1157.72 -555.771 1157.72C-557.317 1157.72 -558.772 1157.63 -560.273 1157.63C-563.775 1157.58 -556.862 1157.95 -559.227 1157.72C-560.364 1157.58 -561.501 1157.54 -562.593 1157.36C-574.463 1155.58 -582.604 1153.21 -593.837 1144.61C-620.261 1124.41 -630.676 1084.54 -631.494 1052.55C-632.54 1010.14 -614.076 968.272 -585.423 938.191C-578.556 930.956 -571.052 924.357 -563.093 918.35C-561.365 917.03 -559.591 915.802 -557.863 914.527C-557.09 913.981 -554.361 912.206 -557.499 914.254C-556.726 913.754 -555.953 913.208 -555.134 912.753C-551.041 910.25 -546.902 907.883 -542.627 905.608C-544.401 906.563 -544.901 906.609 -541.126 904.971C-538.898 904.015 -532.121 902.195 -540.126 904.425C-539.307 904.197 -534.577 901.967 -534.259 902.377C-534.077 902.604 -541.763 904.334 -537.715 903.423C-536.578 903.15 -535.396 902.832 -534.259 902.513C-531.666 901.694 -541.399 903.879 -534.532 902.695C-532.53 902.331 -541.126 903.059 -534.441 902.786C-531.257 902.65 -540.171 902.695 -534.213 902.786C-533.349 902.786 -532.485 902.786 -531.621 902.786C-527.982 902.695 -535.623 902.24 -532.076 902.741C-524.253 903.879 -523.344 903.469 -516.34 907.61C-510.882 910.841 -507.471 914.254 -504.333 919.442C-495.51 934.096 -495.646 952.754 -497.829 969.136C-501.741 998.307 -513.338 1026.52 -525.845 1052.92C-544.583 1092.6 -567.05 1132.19 -597.748 1163.95C-609.346 1175.97 -622.216 1187.25 -636.497 1195.99C-643.774 1200.45 -647.048 1202.23 -653.597 1205.05C-653.37 1204.96 -660.328 1207.73 -656.872 1206.46C-653.416 1205.18 -660.374 1207.64 -660.147 1207.6C-661.329 1208.05 -665.286 1209.14 -659.555 1207.51C-661.647 1208.1 -663.785 1208.64 -665.922 1209.23C-659.01 1207.32 -669.652 1209.92 -671.562 1210.24C-666.013 1209.28 -676.428 1210.74 -677.747 1210.87C-678.338 1210.92 -681.886 1211.15 -678.429 1210.96C-680.158 1211.06 -681.931 1211.1 -683.66 1211.15C-687.48 1211.24 -691.346 1211.15 -695.166 1210.96C-706.809 1210.33 -721.271 1207.64 -733.642 1204.27C-783.306 1190.8 -828.24 1160 -866.67 1126.59C-885.362 1110.35 -904.1 1092.37 -918.881 1074.35C-924.338 1067.71 -940.256 1072.62 -947.124 1074.44C-949.17 1074.99 -975.366 1083.86 -971.637 1088.46H-971.683Z" fill="url(#paint0_radial_1948_4391)"/>
<defs>
<radialGradient id="paint0_radial_1948_4391" cx="0" cy="0" r="1" gradientUnits="userSpaceOnUse" gradientTransform="translate(127.923 526.183) rotate(86.3001) scale(706.289 1314.47)">
<stop stop-color="#08A6A9"/>
<stop offset="0.630208" stop-color="#4AD1D2"/>
</radialGradient>
</defs>
</svg>
