<svg display="none" xmlns="http://www.w3.org/2000/svg" xmlns:xlink="http://www.w3.org/1999/xlink">
   <symbol id="logo" viewBox="0 0 175 80">
      <path fill-rule="evenodd" clip-rule="evenodd" d="M136.471 17.4274C137.469 16.9583 140.69 19.6733 138.594 21.507C134.727 25.9988 133.152 35.3805 136.752 41.2795C138.257 43.7529 141.294 45.1459 144.304 44.9327C157.325 44.0798 170.318 19.5596 169.193 2.37406C168.996 0.895735 170.416 0.284506 171.851 0.0855008C173.285 -0.113504 174.804 0.0855009 175.001 1.57804C175.057 11.5994 172.287 23.9661 163.442 36.4892C153.613 50.4053 141.041 53.8026 134.629 47.4913C130.664 43.5965 128.667 35.551 130.804 27.3492C128.681 31.3577 123.815 33.3762 118.584 31.3861C115.547 35.4657 106.702 42.9711 103.974 35.4231C101.766 29.325 106.097 22.6868 100.796 24.7905C98.6868 25.615 94.5245 27.7046 94.2995 29.1829C94.2855 29.2966 94.6089 29.2255 95.0308 29.2966C96.7322 29.6093 99.1228 31.8552 97.3228 36.475C95.1573 42.0329 90.6716 43.7671 87.0717 42.7579C85.6515 42.3598 84.1609 41.6349 83.3032 39.3606C80.3361 46.1125 74.8942 52.0684 68.496 44.9469C68.2007 44.6058 67.9195 44.2362 67.6804 43.8382C67.3148 44.492 66.9211 45.1459 66.5414 45.7856C64.7837 48.7991 61.8869 53.9306 58.2308 56.4039C56.5715 57.5269 54.6873 57.5979 52.7889 57.5553C52.1702 58.6356 51.7202 59.0194 50.9609 60.0002C47.7126 64.2788 42.4253 67.7188 37.5739 69.3392C37.2224 69.4529 36.8849 69.5667 36.5474 69.6662C36.3506 69.8652 36.1537 70.0784 35.9568 70.2632C34.41 71.7699 32.7085 73.1061 30.8383 74.1864C28.954 75.2952 26.901 76.1623 24.6652 76.7308L24.623 76.7451C20.6013 77.7827 17.0858 77.6264 14.0625 76.5461C9.01429 74.7408 5.52694 70.4622 3.2911 64.9185C1.16776 59.6875 0.169367 53.362 0.0146866 46.9938C-0.252489 35.8495 2.10991 24.3925 5.70974 18.7635C6.48315 17.5553 8.04402 17.1857 9.23928 17.9249C10.4205 15.3805 11.7985 13.0777 13.2891 11.0166C15.5812 7.8467 18.1826 5.28806 20.8825 3.42594C23.6949 1.50697 26.676 0.341364 29.6149 0.0570716C33.0882 -0.28408 38.1364 0.867306 41.1175 3.15586C55.2357 13.9874 49.2312 46.4821 42.0175 61.1516C44.5627 59.2184 46.4329 57.4558 48.1485 54.6982C47.7407 54.0869 47.5157 53.3904 47.4173 52.6228C47.1641 50.6186 47.811 47.8325 48.9781 46.1409C50.2156 44.3357 52.5498 43.4544 53.1264 43.3833C54.8279 43.1559 55.8684 43.9235 56.1075 45.7145C57.7106 58.1097 66.1758 34.0869 66.8508 32.3243C66.5695 30.1921 66.8648 27.8893 67.9757 26.0414C68.3413 25.4302 68.7632 24.9327 69.1991 24.5489C69.8178 24.0087 70.5069 23.696 71.1959 23.5965C71.913 23.497 72.6161 23.6392 73.2489 24.0514C73.8958 24.4636 75.0488 25.1033 75.2316 25.8993C76.1457 29.8083 70.5209 33.1345 72.1943 39.6448C72.363 40.2703 72.8411 41.4217 73.1786 41.777C74.866 43.6534 78.9721 37.7827 79.8439 36.4039C80.2377 35.7785 80.6173 35.1104 80.997 34.4281C82.6844 31.6136 83.3735 27.8467 83.6406 24.62C83.7813 22.9426 83.6828 21.578 85.4828 21.2369C88.1967 20.7109 90.4325 19.8154 90.7841 23.4828C90.8544 24.1935 90.7278 24.6768 90.3341 26.5105C90.531 26.7806 96.1698 21.1516 100.895 19.1473C103.369 18.1665 106.983 17.1146 108.84 17.7685C110.344 18.2945 111.033 20.2276 111.075 21.8765C111.132 23.4117 108.122 27.3918 108.516 29.6946C108.854 31.642 109.697 32.4096 110.696 32.438C112.496 32.4949 115.941 29.453 116.728 28.1452C113.775 23.3549 122.297 11.045 129.665 10.0358C131.367 9.80832 133.813 10.0073 135.051 11.3293C136.457 12.836 137.273 15.75 136.471 17.4416V17.4274ZM15.5671 25.0606C8.35338 35.0393 10.7298 55.5368 20.3341 62.8716C24.2995 65.9135 29.1087 65.8424 33.7491 64.7763C43.2268 53.7884 50.6796 17.1857 37.9958 7.4629C36.1115 6.02722 32.3148 5.18856 30.1352 5.40178C28.0681 5.60078 25.9026 6.46788 23.7793 7.91777C21.5434 9.43874 19.406 11.5709 17.4795 14.2149C13.2469 20.0571 17.6061 22.2319 15.5671 25.0464V25.0606ZM25.7339 70.6754C22.5559 70.3343 19.7013 69.0976 17.2264 67.1928C6.01911 59.4174 6.4269 45.6719 5.69568 40.91C4.66917 51.642 6.30034 58.3513 8.10026 62.8147C9.78769 67.008 12.2907 70.1779 15.7499 71.4288C17.8311 72.1679 20.3341 72.2532 23.3293 71.4714H23.3574C24.173 71.244 24.9605 70.9881 25.7198 70.6896L25.7339 70.6754ZM91.4169 35.3947C91.8809 32.8076 89.6169 32.9355 88.5764 34.0585C87.7186 34.9682 86.903 36.9583 88.3936 37.6264C89.4201 38.0955 91.0794 37.2994 91.4169 35.3947ZM128.428 20.8247C129.145 19.8581 130.27 15.949 127.851 16.7593C127.232 16.9583 126.473 17.8538 125.981 18.3655C124.294 20.6967 124.04 22.3883 124.884 23.0421C125.728 23.696 127.415 22.5446 128.428 20.8104V20.8247Z" fill="#00BFD0"/>
      <path fill-rule="evenodd" clip-rule="evenodd" d="M169.98 68.7285H171.245C171.344 68.8849 171.47 68.9986 171.653 69.0839C171.822 69.155 172.033 69.1976 172.286 69.1976C172.539 69.1976 172.778 69.155 172.989 69.0555C173.13 68.9986 173.242 68.8849 173.341 68.7285H174.592C174.522 69.2118 174.297 69.6099 173.903 69.8941C173.509 70.1927 172.975 70.3348 172.272 70.3348C171.808 70.3348 171.414 70.2637 171.091 70.1358C170.781 70.0079 170.514 69.8231 170.331 69.5814C170.135 69.3398 170.022 69.0555 169.966 68.7285H169.98ZM170.388 77.7122H169.558V71.472H171.077V75.1394L174.241 71.472H174.986V77.7122H173.481V74.1301L170.402 77.7122H170.388ZM163.343 77.7122H162.513V71.472H164.018V75.1394L167.182 71.472H167.927V77.7122H166.422V74.1301L163.343 77.7122ZM157.802 71.472H161.402V72.9645H159.335V77.7122H157.788V71.472H157.802ZM153.218 72.7939C152.74 72.7939 152.332 72.9645 152.009 73.3057C151.685 73.6468 151.531 74.0733 151.531 74.5992C151.531 75.1251 151.685 75.58 152.009 75.9212C152.332 76.2623 152.726 76.4187 153.218 76.4187C153.71 76.4187 154.104 76.2481 154.427 75.9069C154.751 75.5658 154.906 75.1394 154.906 74.5992C154.906 74.059 154.751 73.6326 154.427 73.2915C154.118 72.9645 153.71 72.7939 153.218 72.7939ZM153.204 71.3298C153.781 71.3298 154.329 71.472 154.849 71.7705C155.355 72.069 155.763 72.467 156.059 72.9645C156.34 73.4762 156.48 74.0164 156.48 74.5992C156.48 75.182 156.34 75.7364 156.045 76.2481C155.749 76.7598 155.355 77.1578 154.863 77.4421C154.357 77.7264 153.809 77.8828 153.204 77.8828C152.318 77.8828 151.559 77.5558 150.94 76.9304C150.307 76.2907 149.998 75.5232 149.998 74.6134C149.998 73.6468 150.349 72.8366 151.067 72.1827C151.685 71.6283 152.402 71.344 153.204 71.344V71.3298ZM149.421 77.7264H147.861L146.3 73.789L144.725 77.7264H143.164L145.793 71.4862H146.792L149.435 77.7264H149.421ZM139.311 72.7939C138.833 72.7939 138.425 72.9645 138.102 73.3057C137.778 73.6468 137.623 74.0733 137.623 74.5992C137.623 75.1251 137.778 75.58 138.102 75.9212C138.425 76.2623 138.819 76.4187 139.311 76.4187C139.803 76.4187 140.197 76.2481 140.52 75.9069C140.844 75.5658 140.998 75.1394 140.998 74.5992C140.998 74.059 140.844 73.6326 140.52 73.2915C140.211 72.9645 139.803 72.7939 139.311 72.7939ZM139.283 71.3298C139.859 71.3298 140.422 71.472 140.928 71.7705C141.434 72.069 141.842 72.467 142.137 72.9645C142.419 73.4762 142.573 74.0164 142.573 74.5992C142.573 75.182 142.433 75.7364 142.137 76.2481C141.842 76.7598 141.448 77.1578 140.956 77.4421C140.45 77.7264 139.901 77.8828 139.297 77.8828C138.411 77.8828 137.652 77.5558 137.033 76.9304C136.4 76.2907 136.091 75.5232 136.091 74.6134C136.091 73.6468 136.442 72.8366 137.159 72.1827C137.778 71.6283 138.495 71.344 139.297 71.344L139.283 71.3298ZM130.888 73.7321H133.208V71.4862H134.755V77.7264H133.208V75.1394H130.888V77.7264H129.341V71.4862H130.888V73.7321ZM122.212 71.4862H124.012L125.235 73.1777L126.444 71.4862H128.216L126.121 74.4286L128.483 77.7264H126.683L125.221 75.6795L123.758 77.7264H121.987L124.321 74.4428L122.198 71.4862H122.212ZM119.906 73.8174C119.807 73.4762 119.61 73.2062 119.301 72.9929C118.991 72.7797 118.654 72.666 118.246 72.666C117.81 72.666 117.431 72.7939 117.107 73.0214C116.91 73.1635 116.713 73.4336 116.531 73.8032H119.891L119.906 73.8174ZM121.452 75.0399H116.474C116.545 75.4805 116.742 75.8359 117.051 76.106C117.36 76.3618 117.754 76.504 118.232 76.504C118.809 76.504 119.301 76.305 119.723 75.8927L121.016 76.5182C120.693 76.9873 120.299 77.3284 119.849 77.5558C119.399 77.7833 118.865 77.897 118.246 77.897C117.276 77.897 116.488 77.5843 115.884 76.973C115.279 76.3618 114.97 75.58 114.97 74.6703C114.97 73.7605 115.265 72.9219 115.884 72.2964C116.488 71.671 117.248 71.3583 118.162 71.3583C119.132 71.3583 119.92 71.671 120.524 72.2964C121.129 72.9219 121.438 73.7463 121.438 74.7698V75.0683L121.452 75.0399ZM108.445 71.472H114.196V72.9645H112.143V77.7122H110.597V72.9645H108.445V71.472ZM98.6721 71.472H100.472L101.695 73.1635L102.905 71.472H104.677L102.581 74.4144L104.944 77.7122H103.144L101.681 75.6653L100.219 77.7122H98.4471L100.781 74.4286L98.658 71.472H98.6721ZM96.0566 71.472H97.6034V77.7122H96.0566V71.472ZM91.7818 76.504H92.2599C92.5411 76.504 92.752 76.4897 92.8786 76.4471C93.0052 76.4045 93.1036 76.3334 93.202 76.2197C93.3004 76.1059 93.3426 75.9638 93.3426 75.8074C93.3426 75.2673 93.0333 75.0114 92.4286 75.0114H91.7818V76.5182V76.504ZM91.7818 73.7321H92.2458C92.8927 73.7321 93.3989 73.789 93.7364 73.8743C94.0879 73.9738 94.3832 74.187 94.6223 74.5139C94.8613 74.8408 94.9738 75.2389 94.9738 75.7222C94.9738 76.2055 94.8613 76.6035 94.6504 76.9162C94.4395 77.2431 94.1582 77.4563 93.8207 77.5558C93.4833 77.6696 93.0192 77.7122 92.4146 77.7122H90.235V71.472H91.7818V73.7321ZM85.4961 76.504H86.2836C86.5929 76.504 86.8039 76.4329 86.9304 76.2907C87.057 76.1486 87.1132 76.0064 87.1132 75.8785C87.1132 75.6653 87.0429 75.4947 86.9023 75.3241C86.7617 75.1536 86.5086 75.0683 86.157 75.0683H85.4961V76.504ZM85.4961 73.9311H86.1008C86.3539 73.9311 86.5507 73.86 86.7054 73.7321C86.846 73.6042 86.9164 73.462 86.9164 73.3057C86.9164 73.0782 86.846 72.8934 86.7195 72.7655C86.5929 72.6376 86.4242 72.5665 86.2414 72.5665H86.0445H85.5102V73.9169L85.4961 73.9311ZM83.9493 77.7122V71.472H86.4242C87.2398 71.472 87.7882 71.6426 88.0835 71.9553C88.3788 72.2822 88.5194 72.6376 88.5194 73.0498C88.5194 73.661 88.2241 74.1017 87.6194 74.3576C88.435 74.6418 88.8428 75.1678 88.8428 75.9638C88.8428 76.3902 88.7444 76.7314 88.5194 77.0157C88.3085 77.3 88.0272 77.4848 87.7038 77.5701C87.3804 77.6696 86.9164 77.7122 86.3117 77.7122H83.9352H83.9493ZM79.3651 72.7797C78.887 72.7797 78.4933 72.9503 78.1558 73.2915C77.8324 73.6326 77.6777 74.059 77.6777 74.585C77.6777 75.1109 77.8324 75.5658 78.1558 75.9069C78.4792 76.2481 78.873 76.4045 79.3511 76.4045C79.8292 76.4045 80.237 76.2339 80.5604 75.8927C80.8838 75.5516 81.0385 75.1251 81.0385 74.585C81.0385 74.0448 80.8838 73.6184 80.5604 73.2772C80.251 72.9503 79.8432 72.7797 79.3511 72.7797H79.3651ZM79.337 71.3156C79.9135 71.3156 80.476 71.4578 80.9822 71.7563C81.5025 72.0548 81.8963 72.4528 82.1916 72.9503C82.4728 73.462 82.6134 74.0022 82.6134 74.585C82.6134 75.1678 82.4728 75.7222 82.1775 76.2339C81.8822 76.7456 81.4885 77.1436 80.9963 77.4279C80.4901 77.7122 79.9417 77.8686 79.337 77.8686C78.4511 77.8686 77.6918 77.5416 77.073 76.9162C76.4543 76.2765 76.1309 75.5089 76.1309 74.5992C76.1309 73.6326 76.4824 72.8224 77.1996 72.1685C77.8183 71.6141 78.5355 71.3298 79.337 71.3298V71.3156ZM71.8702 72.7513C71.378 72.7513 70.9702 72.9219 70.6608 73.263C70.3374 73.59 70.1827 74.0306 70.1827 74.585C70.1827 75.1394 70.3515 75.5942 70.6608 75.9212C70.9843 76.2623 71.392 76.4329 71.8702 76.4329C72.3483 76.4329 72.742 76.2623 73.0654 75.9212C73.3888 75.5658 73.5435 75.1251 73.5435 74.585C73.5435 74.0448 73.3888 73.6184 73.0654 73.263C72.756 72.9219 72.3483 72.7513 71.8702 72.7513ZM70.239 71.472V72.1543C70.5202 71.87 70.8155 71.671 71.1389 71.5288C71.4624 71.3867 71.8139 71.3156 72.1795 71.3156C72.981 71.3156 73.6701 71.6141 74.2325 72.2396C74.795 72.8508 75.0763 73.6326 75.0763 74.5992C75.0763 75.5658 74.795 76.305 74.2044 76.9304C73.6279 77.5558 72.9389 77.8686 72.1373 77.8686C71.7858 77.8686 71.4483 77.7975 71.1389 77.6696C70.8296 77.5416 70.5343 77.3284 70.2249 77.0441V79.9865H68.6781V71.4578H70.2249L70.239 71.472ZM61.2534 74.6418C61.2534 74.2296 61.1831 73.8885 61.0566 73.6184C60.9159 73.3625 60.7472 73.1493 60.5082 72.9929C60.2832 72.8366 60.0301 72.7513 59.7348 72.7513C59.2285 72.7513 58.8489 72.9219 58.5676 73.2915C58.2864 73.6468 58.1458 74.0875 58.1458 74.585C58.1458 75.1251 58.3004 75.5658 58.5957 75.9212C58.9051 76.2765 59.2848 76.4613 59.7348 76.4613C60.1847 76.4613 60.5363 76.305 60.8175 75.978C61.1128 75.6653 61.2534 75.2104 61.2534 74.6418ZM65.8517 74.585C65.8517 74.0448 65.697 73.6184 65.4017 73.263C65.1064 72.9219 64.7267 72.7513 64.2486 72.7513C63.8408 72.7513 63.4893 72.9219 63.1799 73.2488C62.8846 73.5757 62.7299 74.0448 62.7299 74.6561C62.7299 75.2104 62.8846 75.6653 63.1658 75.978C63.4611 76.305 63.8268 76.4613 64.2627 76.4613C64.6986 76.4613 65.0923 76.2907 65.4017 75.9354C65.711 75.58 65.8657 75.1394 65.8657 74.5992L65.8517 74.585ZM61.2112 77.1863C60.6628 77.6696 60.0722 77.897 59.4395 77.897C58.6661 77.897 57.9911 77.5843 57.4286 76.9588C56.8521 76.3334 56.5708 75.5516 56.5708 74.6276C56.5708 73.6468 56.8521 72.8508 57.4005 72.2396C57.9489 71.6283 58.6239 71.3298 59.3973 71.3298C60.0863 71.3298 60.691 71.5715 61.2112 72.0548V69.0697H62.7581V72.0548C63.2643 71.5573 63.8689 71.3156 64.572 71.3156C65.0783 71.3156 65.5282 71.4435 65.9642 71.7136C66.386 71.9837 66.7376 72.3533 67.0047 72.8508C67.2719 73.3483 67.4125 73.9311 67.4125 74.6134C67.4125 75.5658 67.1172 76.3476 66.5407 76.973C65.9642 77.5843 65.2892 77.897 64.5299 77.897C63.8971 77.897 63.2924 77.6696 62.7581 77.2005V80.015H61.2112V77.2005V77.1863ZM50.693 77.7264H49.8633V71.4862H51.3679V75.1536L54.5319 71.4862H55.2771V77.7264H53.7725V74.1443L50.693 77.7264ZM41.9746 77.7264V71.4862H43.5214V76.2197H45.8557V71.4862H47.4025V76.2197H48.9774V78.8209H47.5009V77.7264H41.9887H41.9746ZM173.439 62.9005V61.3938H172.891C172.3 61.3938 172.005 61.6354 172.005 62.133C172.005 62.6305 172.328 62.9005 172.989 62.9005H173.425H173.439ZM171.541 63.7676C171.203 63.6539 170.936 63.4407 170.711 63.1422C170.5 62.8437 170.388 62.4883 170.388 62.1045C170.388 61.6497 170.514 61.2374 170.781 60.8821C171.049 60.5409 171.358 60.3135 171.709 60.214C172.075 60.1287 172.638 60.086 173.411 60.086H174.986V66.3263H173.439V64.0661H173.144L171.667 66.3263H169.839L171.555 63.7676H171.541ZM164.271 66.3263H163.455V60.086H164.96V63.7534L168.124 60.086H168.869V66.3263H167.364V62.73L164.285 66.3263H164.271ZM158.744 60.086H162.344V61.5786H160.291V66.3263H158.744V60.086ZM154.16 61.3938C153.682 61.3938 153.274 61.5644 152.965 61.9055C152.642 62.2467 152.487 62.6731 152.487 63.1991C152.487 63.725 152.642 64.1799 152.965 64.521C153.274 64.848 153.682 65.0327 154.174 65.0327C154.666 65.0327 155.06 64.8622 155.384 64.521C155.707 64.1799 155.862 63.7392 155.862 63.2133C155.862 62.6873 155.707 62.2467 155.384 61.9197C155.06 61.5928 154.652 61.4222 154.174 61.4222L154.16 61.3938ZM154.132 59.9297C154.709 59.9297 155.271 60.0861 155.777 60.3703C156.298 60.6546 156.691 61.0526 156.987 61.5644C157.282 62.0761 157.423 62.602 157.423 63.1991C157.423 63.7961 157.268 64.3362 156.987 64.848C156.691 65.3597 156.298 65.7577 155.805 66.042C155.299 66.3263 154.751 66.4826 154.146 66.4826C153.26 66.4826 152.501 66.1699 151.868 65.5303C151.235 64.8906 150.926 64.123 150.926 63.2133C150.926 62.2325 151.278 61.4222 151.995 60.7826C152.613 60.214 153.331 59.9297 154.132 59.9297ZM150.349 66.3263H148.775L147.214 62.3888L145.639 66.3263H144.078L146.707 60.086H147.706L150.349 66.3263ZM140.239 61.3938C139.761 61.3938 139.353 61.5644 139.03 61.9055C138.706 62.2467 138.552 62.6731 138.552 63.1991C138.552 63.725 138.706 64.1799 139.03 64.521C139.339 64.848 139.747 65.0327 140.239 65.0327C140.731 65.0327 141.125 64.8622 141.448 64.521C141.772 64.1799 141.926 63.7392 141.926 63.2133C141.926 62.6873 141.772 62.2467 141.448 61.9197C141.125 61.5928 140.717 61.4222 140.239 61.4222V61.3938ZM140.211 59.9297C140.787 59.9297 141.336 60.0861 141.856 60.3703C142.376 60.6546 142.77 61.0526 143.065 61.5644C143.361 62.0761 143.501 62.602 143.501 63.1991C143.501 63.7961 143.347 64.3362 143.065 64.848C142.77 65.3597 142.376 65.7577 141.884 66.042C141.378 66.3263 140.83 66.4826 140.225 66.4826C139.339 66.4826 138.58 66.1699 137.947 65.5303C137.314 64.8906 137.005 64.123 137.005 63.2133C137.005 62.2325 137.356 61.4222 138.073 60.7826C138.692 60.214 139.409 59.9297 140.211 59.9297ZM130.466 60.086H136.217V61.5786H134.164V66.3263H132.617V61.5786H130.466V60.086ZM126.219 61.3654C125.741 61.3654 125.333 61.5359 125.024 61.8771C124.701 62.2182 124.546 62.6589 124.546 63.1848C124.546 63.7108 124.701 64.1656 125.024 64.521C125.347 64.8622 125.755 65.047 126.219 65.047C126.683 65.047 127.105 64.8764 127.429 64.5352C127.752 64.1941 127.907 63.7392 127.907 63.1848C127.907 62.6305 127.752 62.204 127.429 61.8629C127.105 61.5359 126.711 61.3512 126.219 61.3512V61.3654ZM127.85 60.086H129.397V66.3263H127.85V65.6582C127.555 65.9425 127.246 66.1557 126.936 66.2836C126.627 66.4116 126.304 66.4826 125.952 66.4826C125.151 66.4826 124.462 66.1699 123.885 65.5445C123.308 64.919 123.013 64.1514 123.013 63.2275C123.013 62.3035 123.294 61.4791 123.857 60.8679C124.419 60.2566 125.108 59.9439 125.91 59.9439C126.276 59.9439 126.627 60.015 126.951 60.1571C127.274 60.2993 127.583 60.5125 127.85 60.7826V60.1003V60.086ZM117.895 64.0235L119.807 60.086H120.834L122.366 66.3263H120.848L120.018 62.6589L118.176 66.3263H117.543L115.743 62.6589L114.914 66.3263H113.409L114.956 60.086H115.982L117.909 64.0235H117.895ZM109.528 61.408C109.05 61.408 108.656 61.5786 108.319 61.9197C107.995 62.2609 107.84 62.6873 107.84 63.2133C107.84 63.7392 107.995 64.1941 108.319 64.5352C108.642 64.8622 109.036 65.047 109.528 65.047C110.02 65.047 110.414 64.8764 110.737 64.5352C111.061 64.1941 111.215 63.7534 111.215 63.2275C111.215 62.7015 111.061 62.2609 110.737 61.934C110.428 61.607 110.02 61.4364 109.528 61.4364V61.408ZM109.5 59.9439C110.076 59.9439 110.625 60.1003 111.145 60.3846C111.651 60.6688 112.059 61.0669 112.354 61.5786C112.636 62.0903 112.776 62.6163 112.776 63.2133C112.776 63.8103 112.636 64.3504 112.34 64.8622C112.045 65.3739 111.651 65.7719 111.159 66.0562C110.653 66.3405 110.104 66.4969 109.5 66.4969C108.614 66.4969 107.854 66.1841 107.236 65.5445C106.617 64.9048 106.294 64.1372 106.294 63.2275C106.294 62.2467 106.645 61.4364 107.362 60.7968C107.981 60.2282 108.698 59.9439 109.5 59.9439ZM99.7689 60.1003H105.52V61.5928H103.467V66.3405H101.92V61.5928H99.7689V60.1003ZM98.8549 61.3654L97.5612 62.0761C97.3221 61.8202 97.0831 61.6354 96.844 61.5359C96.605 61.4364 96.3237 61.3938 96.0144 61.3938C95.4379 61.3938 94.9738 61.5644 94.6082 61.9055C94.2426 62.2609 94.0739 62.7015 94.0739 63.2417C94.0739 63.7819 94.2426 64.2083 94.5941 64.5352C94.9457 64.8764 95.3957 65.0327 95.9441 65.0327C96.6331 65.0327 97.1815 64.7911 97.5612 64.322L98.7846 65.1607C98.1237 66.0278 97.1815 66.4684 95.9863 66.4684C94.9035 66.4684 94.0457 66.1415 93.427 65.5018C92.8083 64.848 92.4989 64.0946 92.4989 63.2275C92.4989 62.6305 92.6536 62.0619 92.9489 61.5644C93.2442 61.0526 93.6661 60.6546 94.2004 60.3703C94.7348 60.0718 95.3394 59.9297 96.0003 59.9297C96.619 59.9297 97.1675 60.0576 97.6456 60.2993C98.1377 60.5409 98.5315 60.8963 98.8408 61.3512L98.8549 61.3654Z" fill="#00BFD0"/>
   </symbol>
   <symbol id="social-icon-od" viewBox="0 0 20 21">
      <path d="M14.8009 11.1084C14.5703 10.639 13.9197 10.2437 13.055 10.9107C11.8773 11.8496 9.9997 11.8496 9.9997 11.8496C9.9997 11.8496 8.12205 11.8496 6.9444 10.9107C6.0797 10.2437 5.42911 10.639 5.19852 11.1084C4.78676 11.9319 5.24793 12.3354 6.29381 13.0025C7.19146 13.579 8.41852 13.7931 9.20911 13.8754L8.55028 14.5343C7.61146 15.4648 6.70558 16.3625 6.08793 16.9884C5.71734 17.3672 5.71734 17.9684 6.08793 18.3225L6.20323 18.4543C6.57381 18.8248 7.18323 18.8248 7.55381 18.4543L9.9997 16.0001C10.9468 16.9307 11.8444 17.8284 12.4703 18.4543C12.8409 18.8248 13.442 18.8248 13.8209 18.4543L13.9279 18.3225C14.3068 17.9684 14.3068 17.3672 13.9279 16.9884L11.4738 14.5343L10.8232 13.8672C11.6056 13.7931 12.8162 13.5707 13.7056 13.0025C14.7515 12.3354 15.2126 11.9319 14.8009 11.1084ZM9.9997 4.38014C11.1362 4.38014 12.0585 5.3025 12.0585 6.43073C12.0585 7.5672 11.1362 8.48132 9.9997 8.48132C8.86323 8.48132 7.94087 7.5672 7.94087 6.43073C7.94087 5.3025 8.86323 4.38014 9.9997 4.38014ZM9.9997 10.5978C12.3056 10.5978 14.1668 8.73661 14.1668 6.43073C14.1668 5.32556 13.7277 4.26565 12.9463 3.48418C12.1648 2.7027 11.1049 2.26367 9.9997 2.26367C8.89452 2.26367 7.83462 2.7027 7.05314 3.48418C6.27167 4.26565 5.83264 5.32556 5.83264 6.43073C5.83264 8.73661 7.69381 10.5978 9.9997 10.5978Z" fill="currentColor"/>
   </symbol>
   <symbol id="social-icon-vk" viewBox="0 0 20 21">
      <path fill-rule="evenodd" clip-rule="evenodd" d="M18.8276 5.71346C18.965 5.27802 18.8276 4.96148 18.2196 4.96148H16.1979C15.688 4.96148 15.4525 5.23865 15.3151 5.53512C15.3151 5.53512 14.2751 8.06747 12.8229 9.70925C12.3519 10.1841 12.1361 10.3423 11.881 10.3423C11.7435 10.3423 11.5667 10.1841 11.5667 9.74902V5.69301C11.5667 5.17881 11.41 4.94141 10.9781 4.94141H7.79871C7.48449 4.94141 7.28838 5.17881 7.28838 5.41622C7.28838 5.91073 8.0145 6.02962 8.09287 7.41431V10.423C8.09287 11.0758 7.97706 11.1951 7.71996 11.1951C7.03322 11.1951 5.36518 8.64304 4.3646 5.73508C4.17004 5.15913 3.97239 4.94141 3.46206 4.94141H1.42112C0.832427 4.94141 0.734375 5.21819 0.734375 5.51505C0.734375 6.04931 1.42112 8.73955 3.93302 12.3003C5.60105 14.7323 7.97552 16.0394 10.1145 16.0394C11.41 16.0394 11.5667 15.7425 11.5667 15.248V13.4082C11.5667 12.8149 11.6845 12.716 12.0968 12.716C12.3909 12.716 12.9209 12.8739 14.118 14.0413C15.4915 15.426 15.727 16.0591 16.4925 16.0591H18.5137C19.1024 16.0591 19.3773 15.7622 19.2202 15.1886C19.0438 14.6149 18.3763 13.7842 17.5128 12.7952C17.0418 12.2416 16.3354 11.6282 16.1196 11.3314C15.8254 10.9357 15.9038 10.7774 16.1196 10.4215C16.0999 10.4215 18.5728 6.90012 18.8276 5.71192" fill="currentColor"/>
   </symbol>
   <symbol id="social-icon-youtube" viewBox="0 0 20 21">
      <path d="M19.7524 6.36103C19.7524 4.6239 18.4747 3.22648 16.8958 3.22648C14.7572 3.12649 12.5761 3.08789 10.3472 3.08789H9.65235C7.42882 3.08789 5.2439 3.12649 3.10529 3.22686C1.53029 3.22686 0.252533 4.63201 0.252533 6.36914C0.156025 7.74302 0.115106 9.11728 0.117422 10.4915C0.113562 11.8658 0.157312 13.2414 0.248672 14.6182C0.248672 16.3553 1.52643 17.7643 3.10143 17.7643C5.34812 17.8686 7.65272 17.9149 9.99592 17.911C12.343 17.9187 14.6411 17.8699 16.8904 17.7643C18.4693 17.7643 19.747 16.3553 19.747 14.6182C19.8397 13.2401 19.8821 11.8658 19.8783 10.4877C19.887 9.11342 19.8451 7.73787 19.7524 6.36103ZM8.10824 14.2785V6.69302L13.7057 10.4838L8.10824 14.2785Z" fill="currentColor"/>
   </symbol>
   <symbol id="icon-phone" viewBox="0 0 19 19">
      <path d="M15.7938 16.625C14.0917 16.625 12.4326 16.2455 10.8165 15.4866C9.20049 14.7276 7.76889 13.7249 6.52175 12.4783C5.27461 11.2316 4.27183 9.80004 3.51342 8.18346C2.755 6.56687 2.37553 4.90781 2.375 3.20625C2.375 2.96875 2.45417 2.77083 2.6125 2.6125C2.77083 2.45417 2.96875 2.375 3.20625 2.375H6.4125C6.59722 2.375 6.76215 2.43437 6.90729 2.55312C7.05243 2.67187 7.13819 2.82361 7.16458 3.00833L7.67917 5.77917C7.70556 5.96389 7.70213 6.13225 7.66888 6.28425C7.63563 6.43625 7.55989 6.57136 7.44167 6.68958L5.54167 8.62917C6.09583 9.57917 6.78854 10.4698 7.61979 11.301C8.45104 12.1323 9.36806 12.8514 10.3708 13.4583L12.2313 11.5979C12.35 11.4792 12.5052 11.3902 12.6968 11.3311C12.8883 11.272 13.0762 11.2554 13.2604 11.2813L15.9917 11.8354C16.1764 11.875 16.3281 11.9642 16.4469 12.103C16.5656 12.2418 16.625 12.4033 16.625 12.5875V15.7938C16.625 16.0313 16.5458 16.2292 16.3875 16.3875C16.2292 16.5458 16.0313 16.625 15.7938 16.625Z" fill="#909CAB"/>
   </symbol>
   <symbol id="icon-check" viewBox="0 0 35 35">
      <path fill-rule="evenodd" clip-rule="evenodd" d="M35 0C35 0 31.3261 0.000381439 30 0.000381439H5C3.67392 0.000381439 0.000122637 0.000831608 0.000122637 0.000831608L0 3.91085V34.4997C0 34.8413 0.334984 35.0823 0.658902 34.9738L17.3411 29.3822C17.4442 29.3476 17.5558 29.3476 17.6589 29.3822L34.3411 34.9738C34.665 35.0823 35 34.8413 35 34.4997V3.91085L35 0ZM16.3572 20.7036L26.5826 11.5963C26.8052 11.398 26.806 11.0502 26.5842 10.851L24.8569 9.29915C24.6673 9.12885 24.38 9.12835 24.1899 9.29798L16.3572 16.2853C16.1676 16.4545 15.8812 16.4545 15.6915 16.2853L11.8089 12.8217C11.6193 12.6525 11.3329 12.6525 11.1433 12.8217L9.41825 14.3606C9.19538 14.5594 9.19538 14.908 9.41825 15.1068L15.6918 20.7033C15.8813 20.8724 16.1675 20.8725 16.3572 20.7036Z" fill="#0A65D1"/>
   </symbol>
</svg>
