<svg xmlns="http://www.w3.org/2000/svg" xmlns:xlink="http://www.w3.org/1999/xlink">
   <symbol id="logo" viewBox="0 0 175 80">
      <path fill-rule="evenodd" clip-rule="evenodd" d="M136.471 17.4274C137.469 16.9583 140.69 19.6733 138.594 21.507C134.727 25.9988 133.152 35.3805 136.752 41.2795C138.257 43.7529 141.294 45.1459 144.304 44.9327C157.325 44.0798 170.318 19.5596 169.193 2.37406C168.996 0.895735 170.416 0.284506 171.851 0.0855008C173.285 -0.113504 174.804 0.0855009 175.001 1.57804C175.057 11.5994 172.287 23.9661 163.442 36.4892C153.613 50.4053 141.041 53.8026 134.629 47.4913C130.664 43.5965 128.667 35.551 130.804 27.3492C128.681 31.3577 123.815 33.3762 118.584 31.3861C115.547 35.4657 106.702 42.9711 103.974 35.4231C101.766 29.325 106.097 22.6868 100.796 24.7905C98.6868 25.615 94.5245 27.7046 94.2995 29.1829C94.2855 29.2966 94.6089 29.2255 95.0308 29.2966C96.7322 29.6093 99.1228 31.8552 97.3228 36.475C95.1573 42.0329 90.6716 43.7671 87.0717 42.7579C85.6515 42.3598 84.1609 41.6349 83.3032 39.3606C80.3361 46.1125 74.8942 52.0684 68.496 44.9469C68.2007 44.6058 67.9195 44.2362 67.6804 43.8382C67.3148 44.492 66.9211 45.1459 66.5414 45.7856C64.7837 48.7991 61.8869 53.9306 58.2308 56.4039C56.5715 57.5269 54.6873 57.5979 52.7889 57.5553C52.1702 58.6356 51.7202 59.0194 50.9609 60.0002C47.7126 64.2788 42.4253 67.7188 37.5739 69.3392C37.2224 69.4529 36.8849 69.5667 36.5474 69.6662C36.3506 69.8652 36.1537 70.0784 35.9568 70.2632C34.41 71.7699 32.7085 73.1061 30.8383 74.1864C28.954 75.2952 26.901 76.1623 24.6652 76.7308L24.623 76.7451C20.6013 77.7827 17.0858 77.6264 14.0625 76.5461C9.01429 74.7408 5.52694 70.4622 3.2911 64.9185C1.16776 59.6875 0.169367 53.362 0.0146866 46.9938C-0.252489 35.8495 2.10991 24.3925 5.70974 18.7635C6.48315 17.5553 8.04402 17.1857 9.23928 17.9249C10.4205 15.3805 11.7985 13.0777 13.2891 11.0166C15.5812 7.8467 18.1826 5.28806 20.8825 3.42594C23.6949 1.50697 26.676 0.341364 29.6149 0.0570716C33.0882 -0.28408 38.1364 0.867306 41.1175 3.15586C55.2357 13.9874 49.2312 46.4821 42.0175 61.1516C44.5627 59.2184 46.4329 57.4558 48.1485 54.6982C47.7407 54.0869 47.5157 53.3904 47.4173 52.6228C47.1641 50.6186 47.811 47.8325 48.9781 46.1409C50.2156 44.3357 52.5498 43.4544 53.1264 43.3833C54.8279 43.1559 55.8684 43.9235 56.1075 45.7145C57.7106 58.1097 66.1758 34.0869 66.8508 32.3243C66.5695 30.1921 66.8648 27.8893 67.9757 26.0414C68.3413 25.4302 68.7632 24.9327 69.1991 24.5489C69.8178 24.0087 70.5069 23.696 71.1959 23.5965C71.913 23.497 72.6161 23.6392 73.2489 24.0514C73.8958 24.4636 75.0488 25.1033 75.2316 25.8993C76.1457 29.8083 70.5209 33.1345 72.1943 39.6448C72.363 40.2703 72.8411 41.4217 73.1786 41.777C74.866 43.6534 78.9721 37.7827 79.8439 36.4039C80.2377 35.7785 80.6173 35.1104 80.997 34.4281C82.6844 31.6136 83.3735 27.8467 83.6406 24.62C83.7813 22.9426 83.6828 21.578 85.4828 21.2369C88.1967 20.7109 90.4325 19.8154 90.7841 23.4828C90.8544 24.1935 90.7278 24.6768 90.3341 26.5105C90.531 26.7806 96.1698 21.1516 100.895 19.1473C103.369 18.1665 106.983 17.1146 108.84 17.7685C110.344 18.2945 111.033 20.2276 111.075 21.8765C111.132 23.4117 108.122 27.3918 108.516 29.6946C108.854 31.642 109.697 32.4096 110.696 32.438C112.496 32.4949 115.941 29.453 116.728 28.1452C113.775 23.3549 122.297 11.045 129.665 10.0358C131.367 9.80832 133.813 10.0073 135.051 11.3293C136.457 12.836 137.273 15.75 136.471 17.4416V17.4274ZM15.5671 25.0606C8.35338 35.0393 10.7298 55.5368 20.3341 62.8716C24.2995 65.9135 29.1087 65.8424 33.7491 64.7763C43.2268 53.7884 50.6796 17.1857 37.9958 7.4629C36.1115 6.02722 32.3148 5.18856 30.1352 5.40178C28.0681 5.60078 25.9026 6.46788 23.7793 7.91777C21.5434 9.43874 19.406 11.5709 17.4795 14.2149C13.2469 20.0571 17.6061 22.2319 15.5671 25.0464V25.0606ZM25.7339 70.6754C22.5559 70.3343 19.7013 69.0976 17.2264 67.1928C6.01911 59.4174 6.4269 45.6719 5.69568 40.91C4.66917 51.642 6.30034 58.3513 8.10026 62.8147C9.78769 67.008 12.2907 70.1779 15.7499 71.4288C17.8311 72.1679 20.3341 72.2532 23.3293 71.4714H23.3574C24.173 71.244 24.9605 70.9881 25.7198 70.6896L25.7339 70.6754ZM91.4169 35.3947C91.8809 32.8076 89.6169 32.9355 88.5764 34.0585C87.7186 34.9682 86.903 36.9583 88.3936 37.6264C89.4201 38.0955 91.0794 37.2994 91.4169 35.3947ZM128.428 20.8247C129.145 19.8581 130.27 15.949 127.851 16.7593C127.232 16.9583 126.473 17.8538 125.981 18.3655C124.294 20.6967 124.04 22.3883 124.884 23.0421C125.728 23.696 127.415 22.5446 128.428 20.8104V20.8247Z" fill="#00BFD0"/>
      <path fill-rule="evenodd" clip-rule="evenodd" d="M169.98 68.7285H171.245C171.344 68.8849 171.47 68.9986 171.653 69.0839C171.822 69.155 172.033 69.1976 172.286 69.1976C172.539 69.1976 172.778 69.155 172.989 69.0555C173.13 68.9986 173.242 68.8849 173.341 68.7285H174.592C174.522 69.2118 174.297 69.6099 173.903 69.8941C173.509 70.1927 172.975 70.3348 172.272 70.3348C171.808 70.3348 171.414 70.2637 171.091 70.1358C170.781 70.0079 170.514 69.8231 170.331 69.5814C170.135 69.3398 170.022 69.0555 169.966 68.7285H169.98ZM170.388 77.7122H169.558V71.472H171.077V75.1394L174.241 71.472H174.986V77.7122H173.481V74.1301L170.402 77.7122H170.388ZM163.343 77.7122H162.513V71.472H164.018V75.1394L167.182 71.472H167.927V77.7122H166.422V74.1301L163.343 77.7122ZM157.802 71.472H161.402V72.9645H159.335V77.7122H157.788V71.472H157.802ZM153.218 72.7939C152.74 72.7939 152.332 72.9645 152.009 73.3057C151.685 73.6468 151.531 74.0733 151.531 74.5992C151.531 75.1251 151.685 75.58 152.009 75.9212C152.332 76.2623 152.726 76.4187 153.218 76.4187C153.71 76.4187 154.104 76.2481 154.427 75.9069C154.751 75.5658 154.906 75.1394 154.906 74.5992C154.906 74.059 154.751 73.6326 154.427 73.2915C154.118 72.9645 153.71 72.7939 153.218 72.7939ZM153.204 71.3298C153.781 71.3298 154.329 71.472 154.849 71.7705C155.355 72.069 155.763 72.467 156.059 72.9645C156.34 73.4762 156.48 74.0164 156.48 74.5992C156.48 75.182 156.34 75.7364 156.045 76.2481C155.749 76.7598 155.355 77.1578 154.863 77.4421C154.357 77.7264 153.809 77.8828 153.204 77.8828C152.318 77.8828 151.559 77.5558 150.94 76.9304C150.307 76.2907 149.998 75.5232 149.998 74.6134C149.998 73.6468 150.349 72.8366 151.067 72.1827C151.685 71.6283 152.402 71.344 153.204 71.344V71.3298ZM149.421 77.7264H147.861L146.3 73.789L144.725 77.7264H143.164L145.793 71.4862H146.792L149.435 77.7264H149.421ZM139.311 72.7939C138.833 72.7939 138.425 72.9645 138.102 73.3057C137.778 73.6468 137.623 74.0733 137.623 74.5992C137.623 75.1251 137.778 75.58 138.102 75.9212C138.425 76.2623 138.819 76.4187 139.311 76.4187C139.803 76.4187 140.197 76.2481 140.52 75.9069C140.844 75.5658 140.998 75.1394 140.998 74.5992C140.998 74.059 140.844 73.6326 140.52 73.2915C140.211 72.9645 139.803 72.7939 139.311 72.7939ZM139.283 71.3298C139.859 71.3298 140.422 71.472 140.928 71.7705C141.434 72.069 141.842 72.467 142.137 72.9645C142.419 73.4762 142.573 74.0164 142.573 74.5992C142.573 75.182 142.433 75.7364 142.137 76.2481C141.842 76.7598 141.448 77.1578 140.956 77.4421C140.45 77.7264 139.901 77.8828 139.297 77.8828C138.411 77.8828 137.652 77.5558 137.033 76.9304C136.4 76.2907 136.091 75.5232 136.091 74.6134C136.091 73.6468 136.442 72.8366 137.159 72.1827C137.778 71.6283 138.495 71.344 139.297 71.344L139.283 71.3298ZM130.888 73.7321H133.208V71.4862H134.755V77.7264H133.208V75.1394H130.888V77.7264H129.341V71.4862H130.888V73.7321ZM122.212 71.4862H124.012L125.235 73.1777L126.444 71.4862H128.216L126.121 74.4286L128.483 77.7264H126.683L125.221 75.6795L123.758 77.7264H121.987L124.321 74.4428L122.198 71.4862H122.212ZM119.906 73.8174C119.807 73.4762 119.61 73.2062 119.301 72.9929C118.991 72.7797 118.654 72.666 118.246 72.666C117.81 72.666 117.431 72.7939 117.107 73.0214C116.91 73.1635 116.713 73.4336 116.531 73.8032H119.891L119.906 73.8174ZM121.452 75.0399H116.474C116.545 75.4805 116.742 75.8359 117.051 76.106C117.36 76.3618 117.754 76.504 118.232 76.504C118.809 76.504 119.301 76.305 119.723 75.8927L121.016 76.5182C120.693 76.9873 120.299 77.3284 119.849 77.5558C119.399 77.7833 118.865 77.897 118.246 77.897C117.276 77.897 116.488 77.5843 115.884 76.973C115.279 76.3618 114.97 75.58 114.97 74.6703C114.97 73.7605 115.265 72.9219 115.884 72.2964C116.488 71.671 117.248 71.3583 118.162 71.3583C119.132 71.3583 119.92 71.671 120.524 72.2964C121.129 72.9219 121.438 73.7463 121.438 74.7698V75.0683L121.452 75.0399ZM108.445 71.472H114.196V72.9645H112.143V77.7122H110.597V72.9645H108.445V71.472ZM98.6721 71.472H100.472L101.695 73.1635L102.905 71.472H104.677L102.581 74.4144L104.944 77.7122H103.144L101.681 75.6653L100.219 77.7122H98.4471L100.781 74.4286L98.658 71.472H98.6721ZM96.0566 71.472H97.6034V77.7122H96.0566V71.472ZM91.7818 76.504H92.2599C92.5411 76.504 92.752 76.4897 92.8786 76.4471C93.0052 76.4045 93.1036 76.3334 93.202 76.2197C93.3004 76.1059 93.3426 75.9638 93.3426 75.8074C93.3426 75.2673 93.0333 75.0114 92.4286 75.0114H91.7818V76.5182V76.504ZM91.7818 73.7321H92.2458C92.8927 73.7321 93.3989 73.789 93.7364 73.8743C94.0879 73.9738 94.3832 74.187 94.6223 74.5139C94.8613 74.8408 94.9738 75.2389 94.9738 75.7222C94.9738 76.2055 94.8613 76.6035 94.6504 76.9162C94.4395 77.2431 94.1582 77.4563 93.8207 77.5558C93.4833 77.6696 93.0192 77.7122 92.4146 77.7122H90.235V71.472H91.7818V73.7321ZM85.4961 76.504H86.2836C86.5929 76.504 86.8039 76.4329 86.9304 76.2907C87.057 76.1486 87.1132 76.0064 87.1132 75.8785C87.1132 75.6653 87.0429 75.4947 86.9023 75.3241C86.7617 75.1536 86.5086 75.0683 86.157 75.0683H85.4961V76.504ZM85.4961 73.9311H86.1008C86.3539 73.9311 86.5507 73.86 86.7054 73.7321C86.846 73.6042 86.9164 73.462 86.9164 73.3057C86.9164 73.0782 86.846 72.8934 86.7195 72.7655C86.5929 72.6376 86.4242 72.5665 86.2414 72.5665H86.0445H85.5102V73.9169L85.4961 73.9311ZM83.9493 77.7122V71.472H86.4242C87.2398 71.472 87.7882 71.6426 88.0835 71.9553C88.3788 72.2822 88.5194 72.6376 88.5194 73.0498C88.5194 73.661 88.2241 74.1017 87.6194 74.3576C88.435 74.6418 88.8428 75.1678 88.8428 75.9638C88.8428 76.3902 88.7444 76.7314 88.5194 77.0157C88.3085 77.3 88.0272 77.4848 87.7038 77.5701C87.3804 77.6696 86.9164 77.7122 86.3117 77.7122H83.9352H83.9493ZM79.3651 72.7797C78.887 72.7797 78.4933 72.9503 78.1558 73.2915C77.8324 73.6326 77.6777 74.059 77.6777 74.585C77.6777 75.1109 77.8324 75.5658 78.1558 75.9069C78.4792 76.2481 78.873 76.4045 79.3511 76.4045C79.8292 76.4045 80.237 76.2339 80.5604 75.8927C80.8838 75.5516 81.0385 75.1251 81.0385 74.585C81.0385 74.0448 80.8838 73.6184 80.5604 73.2772C80.251 72.9503 79.8432 72.7797 79.3511 72.7797H79.3651ZM79.337 71.3156C79.9135 71.3156 80.476 71.4578 80.9822 71.7563C81.5025 72.0548 81.8963 72.4528 82.1916 72.9503C82.4728 73.462 82.6134 74.0022 82.6134 74.585C82.6134 75.1678 82.4728 75.7222 82.1775 76.2339C81.8822 76.7456 81.4885 77.1436 80.9963 77.4279C80.4901 77.7122 79.9417 77.8686 79.337 77.8686C78.4511 77.8686 77.6918 77.5416 77.073 76.9162C76.4543 76.2765 76.1309 75.5089 76.1309 74.5992C76.1309 73.6326 76.4824 72.8224 77.1996 72.1685C77.8183 71.6141 78.5355 71.3298 79.337 71.3298V71.3156ZM71.8702 72.7513C71.378 72.7513 70.9702 72.9219 70.6608 73.263C70.3374 73.59 70.1827 74.0306 70.1827 74.585C70.1827 75.1394 70.3515 75.5942 70.6608 75.9212C70.9843 76.2623 71.392 76.4329 71.8702 76.4329C72.3483 76.4329 72.742 76.2623 73.0654 75.9212C73.3888 75.5658 73.5435 75.1251 73.5435 74.585C73.5435 74.0448 73.3888 73.6184 73.0654 73.263C72.756 72.9219 72.3483 72.7513 71.8702 72.7513ZM70.239 71.472V72.1543C70.5202 71.87 70.8155 71.671 71.1389 71.5288C71.4624 71.3867 71.8139 71.3156 72.1795 71.3156C72.981 71.3156 73.6701 71.6141 74.2325 72.2396C74.795 72.8508 75.0763 73.6326 75.0763 74.5992C75.0763 75.5658 74.795 76.305 74.2044 76.9304C73.6279 77.5558 72.9389 77.8686 72.1373 77.8686C71.7858 77.8686 71.4483 77.7975 71.1389 77.6696C70.8296 77.5416 70.5343 77.3284 70.2249 77.0441V79.9865H68.6781V71.4578H70.2249L70.239 71.472ZM61.2534 74.6418C61.2534 74.2296 61.1831 73.8885 61.0566 73.6184C60.9159 73.3625 60.7472 73.1493 60.5082 72.9929C60.2832 72.8366 60.0301 72.7513 59.7348 72.7513C59.2285 72.7513 58.8489 72.9219 58.5676 73.2915C58.2864 73.6468 58.1458 74.0875 58.1458 74.585C58.1458 75.1251 58.3004 75.5658 58.5957 75.9212C58.9051 76.2765 59.2848 76.4613 59.7348 76.4613C60.1847 76.4613 60.5363 76.305 60.8175 75.978C61.1128 75.6653 61.2534 75.2104 61.2534 74.6418ZM65.8517 74.585C65.8517 74.0448 65.697 73.6184 65.4017 73.263C65.1064 72.9219 64.7267 72.7513 64.2486 72.7513C63.8408 72.7513 63.4893 72.9219 63.1799 73.2488C62.8846 73.5757 62.7299 74.0448 62.7299 74.6561C62.7299 75.2104 62.8846 75.6653 63.1658 75.978C63.4611 76.305 63.8268 76.4613 64.2627 76.4613C64.6986 76.4613 65.0923 76.2907 65.4017 75.9354C65.711 75.58 65.8657 75.1394 65.8657 74.5992L65.8517 74.585ZM61.2112 77.1863C60.6628 77.6696 60.0722 77.897 59.4395 77.897C58.6661 77.897 57.9911 77.5843 57.4286 76.9588C56.8521 76.3334 56.5708 75.5516 56.5708 74.6276C56.5708 73.6468 56.8521 72.8508 57.4005 72.2396C57.9489 71.6283 58.6239 71.3298 59.3973 71.3298C60.0863 71.3298 60.691 71.5715 61.2112 72.0548V69.0697H62.7581V72.0548C63.2643 71.5573 63.8689 71.3156 64.572 71.3156C65.0783 71.3156 65.5282 71.4435 65.9642 71.7136C66.386 71.9837 66.7376 72.3533 67.0047 72.8508C67.2719 73.3483 67.4125 73.9311 67.4125 74.6134C67.4125 75.5658 67.1172 76.3476 66.5407 76.973C65.9642 77.5843 65.2892 77.897 64.5299 77.897C63.8971 77.897 63.2924 77.6696 62.7581 77.2005V80.015H61.2112V77.2005V77.1863ZM50.693 77.7264H49.8633V71.4862H51.3679V75.1536L54.5319 71.4862H55.2771V77.7264H53.7725V74.1443L50.693 77.7264ZM41.9746 77.7264V71.4862H43.5214V76.2197H45.8557V71.4862H47.4025V76.2197H48.9774V78.8209H47.5009V77.7264H41.9887H41.9746ZM173.439 62.9005V61.3938H172.891C172.3 61.3938 172.005 61.6354 172.005 62.133C172.005 62.6305 172.328 62.9005 172.989 62.9005H173.425H173.439ZM171.541 63.7676C171.203 63.6539 170.936 63.4407 170.711 63.1422C170.5 62.8437 170.388 62.4883 170.388 62.1045C170.388 61.6497 170.514 61.2374 170.781 60.8821C171.049 60.5409 171.358 60.3135 171.709 60.214C172.075 60.1287 172.638 60.086 173.411 60.086H174.986V66.3263H173.439V64.0661H173.144L171.667 66.3263H169.839L171.555 63.7676H171.541ZM164.271 66.3263H163.455V60.086H164.96V63.7534L168.124 60.086H168.869V66.3263H167.364V62.73L164.285 66.3263H164.271ZM158.744 60.086H162.344V61.5786H160.291V66.3263H158.744V60.086ZM154.16 61.3938C153.682 61.3938 153.274 61.5644 152.965 61.9055C152.642 62.2467 152.487 62.6731 152.487 63.1991C152.487 63.725 152.642 64.1799 152.965 64.521C153.274 64.848 153.682 65.0327 154.174 65.0327C154.666 65.0327 155.06 64.8622 155.384 64.521C155.707 64.1799 155.862 63.7392 155.862 63.2133C155.862 62.6873 155.707 62.2467 155.384 61.9197C155.06 61.5928 154.652 61.4222 154.174 61.4222L154.16 61.3938ZM154.132 59.9297C154.709 59.9297 155.271 60.0861 155.777 60.3703C156.298 60.6546 156.691 61.0526 156.987 61.5644C157.282 62.0761 157.423 62.602 157.423 63.1991C157.423 63.7961 157.268 64.3362 156.987 64.848C156.691 65.3597 156.298 65.7577 155.805 66.042C155.299 66.3263 154.751 66.4826 154.146 66.4826C153.26 66.4826 152.501 66.1699 151.868 65.5303C151.235 64.8906 150.926 64.123 150.926 63.2133C150.926 62.2325 151.278 61.4222 151.995 60.7826C152.613 60.214 153.331 59.9297 154.132 59.9297ZM150.349 66.3263H148.775L147.214 62.3888L145.639 66.3263H144.078L146.707 60.086H147.706L150.349 66.3263ZM140.239 61.3938C139.761 61.3938 139.353 61.5644 139.03 61.9055C138.706 62.2467 138.552 62.6731 138.552 63.1991C138.552 63.725 138.706 64.1799 139.03 64.521C139.339 64.848 139.747 65.0327 140.239 65.0327C140.731 65.0327 141.125 64.8622 141.448 64.521C141.772 64.1799 141.926 63.7392 141.926 63.2133C141.926 62.6873 141.772 62.2467 141.448 61.9197C141.125 61.5928 140.717 61.4222 140.239 61.4222V61.3938ZM140.211 59.9297C140.787 59.9297 141.336 60.0861 141.856 60.3703C142.376 60.6546 142.77 61.0526 143.065 61.5644C143.361 62.0761 143.501 62.602 143.501 63.1991C143.501 63.7961 143.347 64.3362 143.065 64.848C142.77 65.3597 142.376 65.7577 141.884 66.042C141.378 66.3263 140.83 66.4826 140.225 66.4826C139.339 66.4826 138.58 66.1699 137.947 65.5303C137.314 64.8906 137.005 64.123 137.005 63.2133C137.005 62.2325 137.356 61.4222 138.073 60.7826C138.692 60.214 139.409 59.9297 140.211 59.9297ZM130.466 60.086H136.217V61.5786H134.164V66.3263H132.617V61.5786H130.466V60.086ZM126.219 61.3654C125.741 61.3654 125.333 61.5359 125.024 61.8771C124.701 62.2182 124.546 62.6589 124.546 63.1848C124.546 63.7108 124.701 64.1656 125.024 64.521C125.347 64.8622 125.755 65.047 126.219 65.047C126.683 65.047 127.105 64.8764 127.429 64.5352C127.752 64.1941 127.907 63.7392 127.907 63.1848C127.907 62.6305 127.752 62.204 127.429 61.8629C127.105 61.5359 126.711 61.3512 126.219 61.3512V61.3654ZM127.85 60.086H129.397V66.3263H127.85V65.6582C127.555 65.9425 127.246 66.1557 126.936 66.2836C126.627 66.4116 126.304 66.4826 125.952 66.4826C125.151 66.4826 124.462 66.1699 123.885 65.5445C123.308 64.919 123.013 64.1514 123.013 63.2275C123.013 62.3035 123.294 61.4791 123.857 60.8679C124.419 60.2566 125.108 59.9439 125.91 59.9439C126.276 59.9439 126.627 60.015 126.951 60.1571C127.274 60.2993 127.583 60.5125 127.85 60.7826V60.1003V60.086ZM117.895 64.0235L119.807 60.086H120.834L122.366 66.3263H120.848L120.018 62.6589L118.176 66.3263H117.543L115.743 62.6589L114.914 66.3263H113.409L114.956 60.086H115.982L117.909 64.0235H117.895ZM109.528 61.408C109.05 61.408 108.656 61.5786 108.319 61.9197C107.995 62.2609 107.84 62.6873 107.84 63.2133C107.84 63.7392 107.995 64.1941 108.319 64.5352C108.642 64.8622 109.036 65.047 109.528 65.047C110.02 65.047 110.414 64.8764 110.737 64.5352C111.061 64.1941 111.215 63.7534 111.215 63.2275C111.215 62.7015 111.061 62.2609 110.737 61.934C110.428 61.607 110.02 61.4364 109.528 61.4364V61.408ZM109.5 59.9439C110.076 59.9439 110.625 60.1003 111.145 60.3846C111.651 60.6688 112.059 61.0669 112.354 61.5786C112.636 62.0903 112.776 62.6163 112.776 63.2133C112.776 63.8103 112.636 64.3504 112.34 64.8622C112.045 65.3739 111.651 65.7719 111.159 66.0562C110.653 66.3405 110.104 66.4969 109.5 66.4969C108.614 66.4969 107.854 66.1841 107.236 65.5445C106.617 64.9048 106.294 64.1372 106.294 63.2275C106.294 62.2467 106.645 61.4364 107.362 60.7968C107.981 60.2282 108.698 59.9439 109.5 59.9439ZM99.7689 60.1003H105.52V61.5928H103.467V66.3405H101.92V61.5928H99.7689V60.1003ZM98.8549 61.3654L97.5612 62.0761C97.3221 61.8202 97.0831 61.6354 96.844 61.5359C96.605 61.4364 96.3237 61.3938 96.0144 61.3938C95.4379 61.3938 94.9738 61.5644 94.6082 61.9055C94.2426 62.2609 94.0739 62.7015 94.0739 63.2417C94.0739 63.7819 94.2426 64.2083 94.5941 64.5352C94.9457 64.8764 95.3957 65.0327 95.9441 65.0327C96.6331 65.0327 97.1815 64.7911 97.5612 64.322L98.7846 65.1607C98.1237 66.0278 97.1815 66.4684 95.9863 66.4684C94.9035 66.4684 94.0457 66.1415 93.427 65.5018C92.8083 64.848 92.4989 64.0946 92.4989 63.2275C92.4989 62.6305 92.6536 62.0619 92.9489 61.5644C93.2442 61.0526 93.6661 60.6546 94.2004 60.3703C94.7348 60.0718 95.3394 59.9297 96.0003 59.9297C96.619 59.9297 97.1675 60.0576 97.6456 60.2993C98.1377 60.5409 98.5315 60.8963 98.8408 61.3512L98.8549 61.3654Z" fill="#00BFD0"/>
   </symbol>
   <symbol id="social-icon-od" viewBox="0 0 20 21">
      <path d="M14.8009 11.1084C14.5703 10.639 13.9197 10.2437 13.055 10.9107C11.8773 11.8496 9.9997 11.8496 9.9997 11.8496C9.9997 11.8496 8.12205 11.8496 6.9444 10.9107C6.0797 10.2437 5.42911 10.639 5.19852 11.1084C4.78676 11.9319 5.24793 12.3354 6.29381 13.0025C7.19146 13.579 8.41852 13.7931 9.20911 13.8754L8.55028 14.5343C7.61146 15.4648 6.70558 16.3625 6.08793 16.9884C5.71734 17.3672 5.71734 17.9684 6.08793 18.3225L6.20323 18.4543C6.57381 18.8248 7.18323 18.8248 7.55381 18.4543L9.9997 16.0001C10.9468 16.9307 11.8444 17.8284 12.4703 18.4543C12.8409 18.8248 13.442 18.8248 13.8209 18.4543L13.9279 18.3225C14.3068 17.9684 14.3068 17.3672 13.9279 16.9884L11.4738 14.5343L10.8232 13.8672C11.6056 13.7931 12.8162 13.5707 13.7056 13.0025C14.7515 12.3354 15.2126 11.9319 14.8009 11.1084ZM9.9997 4.38014C11.1362 4.38014 12.0585 5.3025 12.0585 6.43073C12.0585 7.5672 11.1362 8.48132 9.9997 8.48132C8.86323 8.48132 7.94087 7.5672 7.94087 6.43073C7.94087 5.3025 8.86323 4.38014 9.9997 4.38014ZM9.9997 10.5978C12.3056 10.5978 14.1668 8.73661 14.1668 6.43073C14.1668 5.32556 13.7277 4.26565 12.9463 3.48418C12.1648 2.7027 11.1049 2.26367 9.9997 2.26367C8.89452 2.26367 7.83462 2.7027 7.05314 3.48418C6.27167 4.26565 5.83264 5.32556 5.83264 6.43073C5.83264 8.73661 7.69381 10.5978 9.9997 10.5978Z" fill="currentColor"/>
   </symbol>
   <symbol id="social-icon-vk" viewBox="0 0 20 21">
      <path fill-rule="evenodd" clip-rule="evenodd" d="M18.8276 5.71346C18.965 5.27802 18.8276 4.96148 18.2196 4.96148H16.1979C15.688 4.96148 15.4525 5.23865 15.3151 5.53512C15.3151 5.53512 14.2751 8.06747 12.8229 9.70925C12.3519 10.1841 12.1361 10.3423 11.881 10.3423C11.7435 10.3423 11.5667 10.1841 11.5667 9.74902V5.69301C11.5667 5.17881 11.41 4.94141 10.9781 4.94141H7.79871C7.48449 4.94141 7.28838 5.17881 7.28838 5.41622C7.28838 5.91073 8.0145 6.02962 8.09287 7.41431V10.423C8.09287 11.0758 7.97706 11.1951 7.71996 11.1951C7.03322 11.1951 5.36518 8.64304 4.3646 5.73508C4.17004 5.15913 3.97239 4.94141 3.46206 4.94141H1.42112C0.832427 4.94141 0.734375 5.21819 0.734375 5.51505C0.734375 6.04931 1.42112 8.73955 3.93302 12.3003C5.60105 14.7323 7.97552 16.0394 10.1145 16.0394C11.41 16.0394 11.5667 15.7425 11.5667 15.248V13.4082C11.5667 12.8149 11.6845 12.716 12.0968 12.716C12.3909 12.716 12.9209 12.8739 14.118 14.0413C15.4915 15.426 15.727 16.0591 16.4925 16.0591H18.5137C19.1024 16.0591 19.3773 15.7622 19.2202 15.1886C19.0438 14.6149 18.3763 13.7842 17.5128 12.7952C17.0418 12.2416 16.3354 11.6282 16.1196 11.3314C15.8254 10.9357 15.9038 10.7774 16.1196 10.4215C16.0999 10.4215 18.5728 6.90012 18.8276 5.71192" fill="currentColor"/>
   </symbol>
   <symbol id="social-icon-youtube" viewBox="0 0 20 21">
      <path d="M19.7524 6.36103C19.7524 4.6239 18.4747 3.22648 16.8958 3.22648C14.7572 3.12649 12.5761 3.08789 10.3472 3.08789H9.65235C7.42882 3.08789 5.2439 3.12649 3.10529 3.22686C1.53029 3.22686 0.252533 4.63201 0.252533 6.36914C0.156025 7.74302 0.115106 9.11728 0.117422 10.4915C0.113562 11.8658 0.157312 13.2414 0.248672 14.6182C0.248672 16.3553 1.52643 17.7643 3.10143 17.7643C5.34812 17.8686 7.65272 17.9149 9.99592 17.911C12.343 17.9187 14.6411 17.8699 16.8904 17.7643C18.4693 17.7643 19.747 16.3553 19.747 14.6182C19.8397 13.2401 19.8821 11.8658 19.8783 10.4877C19.887 9.11342 19.8451 7.73787 19.7524 6.36103ZM8.10824 14.2785V6.69302L13.7057 10.4838L8.10824 14.2785Z" fill="currentColor"/>
   </symbol>
   <symbol id="icon-phone" viewBox="0 0 19 19">
      <path d="M15.7938 16.625C14.0917 16.625 12.4326 16.2455 10.8165 15.4866C9.20049 14.7276 7.76889 13.7249 6.52175 12.4783C5.27461 11.2316 4.27183 9.80004 3.51342 8.18346C2.755 6.56687 2.37553 4.90781 2.375 3.20625C2.375 2.96875 2.45417 2.77083 2.6125 2.6125C2.77083 2.45417 2.96875 2.375 3.20625 2.375H6.4125C6.59722 2.375 6.76215 2.43437 6.90729 2.55312C7.05243 2.67187 7.13819 2.82361 7.16458 3.00833L7.67917 5.77917C7.70556 5.96389 7.70213 6.13225 7.66888 6.28425C7.63563 6.43625 7.55989 6.57136 7.44167 6.68958L5.54167 8.62917C6.09583 9.57917 6.78854 10.4698 7.61979 11.301C8.45104 12.1323 9.36806 12.8514 10.3708 13.4583L12.2313 11.5979C12.35 11.4792 12.5052 11.3902 12.6968 11.3311C12.8883 11.272 13.0762 11.2554 13.2604 11.2813L15.9917 11.8354C16.1764 11.875 16.3281 11.9642 16.4469 12.103C16.5656 12.2418 16.625 12.4033 16.625 12.5875V15.7938C16.625 16.0313 16.5458 16.2292 16.3875 16.3875C16.2292 16.5458 16.0313 16.625 15.7938 16.625Z" fill="#909CAB"/>
   </symbol>
   <symbol id="icon-mail" viewBox="0 0 19 20">
      <path d="M3.16634 16.3346C2.73093 16.3346 2.35805 16.1795 2.04772 15.8691C1.73738 15.5588 1.58248 15.1862 1.58301 14.7513V5.2513C1.58301 4.81589 1.73818 4.44301 2.04851 4.13268C2.35884 3.82234 2.73145 3.66744 3.16634 3.66797H15.833C16.2684 3.66797 16.6413 3.82314 16.9516 4.13347C17.262 4.4438 17.4169 4.81641 17.4163 5.2513V14.7513C17.4163 15.1867 17.2612 15.5596 16.9508 15.8699C16.6405 16.1803 16.2679 16.3352 15.833 16.3346H3.16634ZM9.49968 10.6544C9.56565 10.6544 9.63505 10.6444 9.70788 10.6243C9.78072 10.6043 9.84986 10.5747 9.9153 10.5357L15.5163 7.03255C15.6219 6.96658 15.7011 6.88398 15.7538 6.78476C15.8066 6.68554 15.833 6.57682 15.833 6.4586C15.833 6.19471 15.7209 5.99679 15.4966 5.86485C15.2722 5.7329 15.0413 5.7395 14.8038 5.88464L9.49968 9.20964L4.19551 5.88464C3.95801 5.7395 3.72711 5.73633 3.5028 5.87514C3.2785 6.01394 3.16634 6.20843 3.16634 6.4586C3.16634 6.59054 3.19273 6.70612 3.24551 6.80535C3.29829 6.90457 3.37745 6.9803 3.48301 7.03255L9.08405 10.5357C9.15002 10.5753 9.21943 10.6051 9.29226 10.6251C9.36509 10.6452 9.43423 10.655 9.49968 10.6544Z" fill="#909CAB"/>
   </symbol>
   <symbol id="icon-check" viewBox="0 0 35 35">
      <path fill-rule="evenodd" clip-rule="evenodd" d="M35 0C35 0 31.3261 0.000381439 30 0.000381439H5C3.67392 0.000381439 0.000122637 0.000831608 0.000122637 0.000831608L0 3.91085V34.4997C0 34.8413 0.334984 35.0823 0.658902 34.9738L17.3411 29.3822C17.4442 29.3476 17.5558 29.3476 17.6589 29.3822L34.3411 34.9738C34.665 35.0823 35 34.8413 35 34.4997V3.91085L35 0ZM16.3572 20.7036L26.5826 11.5963C26.8052 11.398 26.806 11.0502 26.5842 10.851L24.8569 9.29915C24.6673 9.12885 24.38 9.12835 24.1899 9.29798L16.3572 16.2853C16.1676 16.4545 15.8812 16.4545 15.6915 16.2853L11.8089 12.8217C11.6193 12.6525 11.3329 12.6525 11.1433 12.8217L9.41825 14.3606C9.19538 14.5594 9.19538 14.908 9.41825 15.1068L15.6918 20.7033C15.8813 20.8724 16.1675 20.8725 16.3572 20.7036Z" fill="#0A65D1"/>
   </symbol>
   <symbol id="icon-checkbox" viewBox="0 0 10 8">
      <path d="M8.98329 1.95045L4.10129 6.83145C4.01529 6.9175 3.91318 6.98577 3.80079 7.03234C3.68841 7.07892 3.56794 7.10289 3.44629 7.10289C3.32463 7.10289 3.20417 7.07892 3.09178 7.03234C2.97939 6.98577 2.87728 6.9175 2.79129 6.83145L0.272286 4.31145C0.0985696 4.13773 0.000976563 3.90212 0.000976562 3.65645C0.000976562 3.41078 0.0985696 3.17517 0.272286 3.00145C0.446003 2.82773 0.681614 2.73014 0.927286 2.73014C1.17296 2.73014 1.40857 2.82773 1.58229 3.00145L3.44729 4.86745L7.67429 0.64045C7.848 0.466733 8.08361 0.369141 8.32929 0.369141C8.57496 0.369141 8.81057 0.466733 8.98429 0.64045C9.158 0.814166 9.2556 1.04978 9.2556 1.29545C9.2556 1.54112 9.158 1.77673 8.98429 1.95045H8.98329Z" fill="white"/>
   </symbol>
   <symbol id="icon-star" viewBox="0 0 27 25">
      <path d="M12.5919 0.968665C12.9494 0.193793 14.0506 0.193793 14.4081 0.968665L17.3565 7.36095C17.5022 7.67676 17.8015 7.8942 18.1468 7.93515L25.1374 8.76399C25.9848 8.86446 26.3251 9.91185 25.6986 10.4912L20.5303 15.2707C20.275 15.5068 20.1607 15.8587 20.2284 16.1998L21.6004 23.1043C21.7667 23.9413 20.8757 24.5886 20.1311 24.1718L13.9884 20.7334C13.685 20.5635 13.315 20.5635 13.0116 20.7334L6.8689 24.1718C6.12429 24.5886 5.23333 23.9413 5.39963 23.1043L6.77156 16.1998C6.83934 15.8587 6.72502 15.5068 6.46968 15.2707L1.30139 10.4912C0.674887 9.91185 1.0152 8.86446 1.8626 8.76399L8.85315 7.93515C9.19851 7.8942 9.4978 7.67676 9.64347 7.36095L12.5919 0.968665Z" fill="#FFBC11"/>
   </symbol>
   <symbol id="icon-link" viewBox="0 0 17 17">
      <path d="M0.72127 15.5709L15.5705 0.721637M15.5705 0.721637L4.2568 1.42874M15.5705 0.721637V12.7425" stroke="CurrentColor" stroke-linecap="round" stroke-linejoin="round"/>
   </symbol>
   <symbol id="icon-plus" viewBox="0 0 21 21">
      <rect width="21" height="21" rx="10.5" fill="#0A8E92"/>
      <path fill-rule="evenodd" clip-rule="evenodd" d="M11.658 6.48438C11.658 5.93209 11.2103 5.48438 10.658 5.48438C10.1058 5.48438 9.65805 5.93209 9.65805 6.48438V9.65823H6.48438C5.93209 9.65823 5.48438 10.1059 5.48438 10.6582C5.48438 11.2105 5.93209 11.6582 6.48438 11.6582H9.65805V14.4847C9.65805 15.037 10.1058 15.4847 10.658 15.4847C11.2103 15.4847 11.658 15.037 11.658 14.4847V11.6582H14.4847C15.037 11.6582 15.4847 11.2105 15.4847 10.6582C15.4847 10.1059 15.037 9.65823 14.4847 9.65823H11.658V6.48438Z" fill="#F3F3F3"/>
   </symbol>
   <symbol id="icon-minus" viewBox="0 0 21 21">
      <rect width="21" height="21" rx="10.5" fill="#9E4734"/>
      <path fill-rule="evenodd" clip-rule="evenodd" d="M5.48438 10.793C5.48438 10.2407 5.93209 9.79297 6.48438 9.79297H14.4847C15.037 9.79297 15.4847 10.2407 15.4847 10.793C15.4847 11.3453 15.037 11.793 14.4847 11.793H6.48438C5.93209 11.793 5.48438 11.3453 5.48438 10.793Z" fill="#F3F3F3"/>
   </symbol>
   <symbol id="arrow-left" viewBox="0 0 23 18">
      <path d="M22.001 8.5H1.00098M1.00098 8.5L9.50098 1M1.00098 8.5L9.50098 17" stroke="currentColor" stroke-linecap="round" stroke-linejoin="round"/>
   </symbol>
   <symbol id="arrow-right" viewBox="0 0 23 18">
      <path d="M0.999023 8.5H21.999M21.999 8.5L13.499 1M21.999 8.5L13.499 17" stroke="currentColor" stroke-linecap="round" stroke-linejoin="round"/>
   </symbol>
   <symbol id="icon-faq" viewBox="0 0 32 32">
      <path fill-rule="evenodd" clip-rule="evenodd" d="M9.31878 6.52072C13.7662 6.17278 18.234 6.17278 22.6814 6.52072L25.6681 6.75538C26.477 6.81845 27.2416 7.15046 27.8399 7.6985C28.4382 8.24655 28.8358 8.97909 28.9694 9.77938C29.6588 13.8994 29.6588 18.1034 28.9694 22.222C28.8359 23.0221 28.4384 23.7545 27.8404 24.3025C27.2424 24.8506 26.4781 25.1827 25.6694 25.246L22.6828 25.4794C18.2349 25.8274 13.7666 25.8274 9.31878 25.4794L6.33211 25.246C5.5232 25.183 4.75866 24.851 4.16035 24.3029C3.56205 23.7549 3.1644 23.0223 3.03078 22.222C2.3426 18.103 2.3426 13.8984 3.03078 9.77938C3.16434 8.9793 3.56179 8.24691 4.15983 7.69889C4.75787 7.15087 5.5221 6.81873 6.33078 6.75538L9.31745 6.52205L9.31878 6.52072ZM13.3334 19.2941V12.7074C13.3336 12.6367 13.3524 12.5673 13.388 12.5063C13.4237 12.4452 13.4749 12.3947 13.5364 12.3599C13.5979 12.3251 13.6676 12.3072 13.7382 12.308C13.8089 12.3089 13.8781 12.3284 13.9388 12.3647L19.4281 15.658C19.4872 15.6936 19.5361 15.7439 19.57 15.8039C19.6039 15.864 19.6218 15.9318 19.6218 16.0007C19.6218 16.0697 19.6039 16.1375 19.57 16.1975C19.5361 16.2576 19.4872 16.3078 19.4281 16.3434L13.9388 19.6367C13.8781 19.673 13.8089 19.6926 13.7382 19.6934C13.6676 19.6943 13.5979 19.6764 13.5364 19.6415C13.4749 19.6067 13.4237 19.5562 13.388 19.4952C13.3524 19.4341 13.3336 19.3647 13.3334 19.2941Z" fill="currentColor"/>
   </symbol>
   <symbol id="icon-faq-toggle" viewBox="0 0 13 8">
      <path d="M6.88806 0.477608C6.68796 0.231336 6.31204 0.231337 6.11194 0.477609L0.662428 7.1847C0.396937 7.51146 0.629468 8 1.05048 8H11.9495C12.3705 8 12.6031 7.51146 12.3376 7.1847L6.88806 0.477608Z" fill="#404A6C"/>
   </symbol>
   <symbol id="icon-footer-line" viewBox="0 0 664 29">
      <path d="M1 0V18C1 19.6569 2.34315 21 4 21H321.642C322.411 21 323.151 21.2955 323.708 21.8255L329.191 27.0357C330.349 28.1364 332.166 28.1364 333.324 27.0357L338.806 21.8255C339.364 21.2955 340.104 21 340.873 21H660C661.657 21 663 19.6569 663 18V0" stroke="white"/>
   </symbol>
   <symbol id="bg-hero" viewBox="0 0 1888 950" fill="none">
      <path fill-rule="evenodd" clip-rule="evenodd" d="M10.995 6.78656C4.28288 12.2883 0 20.644 0 30V699.879C46.427 769.094 111.323 825.856 189.986 855.516C257.733 881.119 330.159 886.974 401.83 879.689C394.503 886.318 386.975 892.7 379.179 898.867C373.691 903.257 368.203 907.51 362.578 911.488C359.615 913.644 356.519 915.799 353.42 917.954C346.895 922.063 351.139 919.563 353.249 918.073L353.251 918.072C353.307 918.033 353.364 917.993 353.42 917.954C354.108 917.521 354.914 917.015 355.856 916.427C355.193 916.856 354.541 917.285 353.894 917.711C352.265 918.783 350.665 919.835 348.996 920.817C343.371 924.384 337.609 927.814 331.846 931.106C330.406 931.929 328.965 932.718 327.525 933.507C326.084 934.296 324.644 935.085 323.203 935.908C322.311 936.388 321.454 936.834 320.596 937.28C320.29 937.439 319.985 937.598 319.677 937.758C318.524 938.282 317.367 938.809 316.206 939.338C312.055 941.23 307.87 943.137 303.751 944.91C303.306 945.076 302.862 945.242 302.419 945.409C300.218 946.234 298.03 947.055 295.801 947.79C295.174 947.946 294.582 948.094 294.023 948.234C294.239 948.167 294.429 948.105 294.59 948.052C296.146 947.536 294.99 947.754 287.214 950H288.033C289.129 949.739 290.514 949.387 291.882 949.005C291.483 949.122 291.086 949.239 290.688 949.352C289.869 949.586 289.04 949.798 288.205 950H384.176C434.912 926.492 481.712 894.997 522.04 855.826C544.444 849.319 566.444 841.823 587.855 833.565C761.957 766.48 903.955 642.188 1034.7 512.27C1147.75 399.913 1251.47 277.266 1336.26 141.999C1365.01 96.1379 1391.7 48.7786 1415.41 0L1308.68 0C1184.62 268.305 977.277 498.361 750.706 684.579C719.151 710.507 686.224 735.201 651.651 757.014C635.324 767.303 618.724 777.044 601.849 786.098C598.144 788.156 594.44 790.077 590.736 791.997C589.089 792.82 579.623 797.622 586.62 794.192C581.544 796.69 576.421 799.14 571.25 801.515C660.479 689.95 708.386 549.455 726.834 408.144C741.24 298.256 737.673 186.585 721.758 77.1086C721.023 72.0358 720.3 66.9236 719.573 61.7836C716.688 41.3911 713.741 20.5594 709.758 0H583.111C586.409 13.6397 588.869 27.6187 591.293 41.3901C592.196 46.5208 593.094 51.6228 594.028 56.6676C599.242 85.0656 603.495 113.601 607.062 142.273C613.51 196.051 616.94 250.24 616.666 304.43C615.705 475.367 577.016 651.928 477.274 793.506C467.259 807.774 456.695 821.493 445.445 834.8C444.814 835.554 444.18 836.304 443.544 837.049C443.542 837.049 443.54 837.05 443.538 837.05C440.264 837.236 436.488 837.451 440.673 837.279C440.506 837.287 440.34 837.295 440.173 837.303C437.644 837.424 435.135 837.544 432.686 837.544C426.375 837.681 420.201 837.681 413.89 837.544C410.185 837.544 406.481 837.407 402.777 837.132C401.744 837.085 400.942 837.051 400.334 837.028C399.779 836.981 399.091 836.925 398.249 836.858C385.079 835.76 372.045 834.114 359.148 831.645C334.59 827.118 312.913 820.67 290.002 811.067C244.315 791.86 202.882 763.188 167.897 727.93C4.49629 563.03 0.654816 291.534 83.2469 87.9465C95.3337 58.0639 109.213 28.6519 124.613 0H30C26.0793 0 22.3343 0.752115 18.9013 2.11993C17.548 4.51262 16.2051 6.91239 14.8727 9.31909C13.9095 8.25747 12.5865 7.42599 10.995 6.78656ZM294.465 948.232C293.668 948.491 292.778 948.754 291.882 949.005C292.357 948.864 292.834 948.721 293.311 948.578C293.695 948.462 294.079 948.347 294.465 948.232ZM297.592 947.345C296.965 947.5 296.369 947.648 295.801 947.79C295.606 947.854 295.411 947.918 295.215 947.98C294.977 948.064 294.726 948.148 294.465 948.232C295.498 947.925 296.538 947.623 297.592 947.345Z" fill="url(#paint0_radial_1933_3381)" fill-opacity="0.1"/>
      <path d="M226.42 950C218.72 948.74 211.092 947.128 203.568 945.1C203.078 944.966 201.762 944.586 200.359 944.181C199.007 943.791 197.574 943.377 196.722 943.138C196.533 943.075 196.332 943.008 196.123 942.938C194.169 942.287 191.495 941.395 190.809 941.121C184.772 939.063 178.873 936.594 172.973 934.124C161.037 928.911 149.513 922.738 138.537 915.741C87.9116 883.639 52.515 838.367 25.4874 784.864C15.6854 765.483 7.24969 745.474 0 725.022V920C0 936.569 13.4314 950 30 950H226.42Z" fill="url(#paint1_radial_1933_3381)" fill-opacity="0.1"/>
      <path fill-rule="evenodd" clip-rule="evenodd" d="M1157.23 671.516C1159.02 602.459 1170.91 533.954 1187.09 466.97L1187.3 466.832C1188.08 463.402 1194.41 460.706 1198.28 459.062C1198.85 458.817 1199.37 458.596 1199.81 458.399C1207.14 455.15 1214.95 453.007 1222.76 451.417C1226.31 450.672 1241.74 447.552 1245.62 451.822C1257.4 430.541 1270.81 410.335 1285.46 391.622C1305.65 365.838 1329.57 342.197 1358.88 326.92C1389.57 310.882 1425.45 301.204 1460.22 303.97C1501.22 307.218 1534.74 333.832 1558.87 365.492C1569.52 379.525 1578.71 394.871 1585.49 411.185C1594.17 432.081 1597.51 455.703 1600.7 478.258C1601.07 480.848 1601.43 483.424 1601.8 485.98C1609.82 541.143 1611.62 597.412 1604.36 652.783C1595.06 723.987 1570.92 794.78 1525.96 850.995C1528.57 849.798 1531.15 848.564 1533.71 847.305C1530.18 849.033 1534.95 846.614 1535.78 846.199C1537.65 845.231 1539.51 844.264 1541.38 843.227C1549.88 838.664 1558.25 833.756 1566.48 828.572C1583.9 817.581 1600.49 805.138 1616.39 792.073C1724.93 702.862 1824.71 593.683 1888 466.958V554.103C1850.16 608.443 1806.42 658.606 1759.49 705.25C1693.6 770.713 1622.06 833.342 1534.33 867.145C1523.54 871.306 1512.46 875.083 1501.17 878.361C1475.2 903.582 1443.91 922.487 1409.97 934.751C1375.33 947.262 1336 954.175 1299.36 947.262C1233.13 934.75 1192.28 877.099 1173.75 815.922C1159.65 769.33 1155.98 719.974 1157.23 671.516ZM1461.62 868.9C1461.61 868.9 1461.61 868.9 1461.61 868.9C1459.96 868.994 1458.06 869.103 1460.18 869.016C1460.09 869.02 1460 869.024 1459.92 869.028C1458.64 869.089 1457.38 869.149 1456.14 869.149C1452.96 869.218 1449.85 869.218 1446.67 869.149C1444.81 869.149 1442.94 869.08 1441.07 868.942C1440.55 868.918 1440.15 868.901 1439.84 868.889C1439.56 868.866 1439.22 868.837 1438.79 868.804C1432.16 868.251 1425.59 867.421 1419.09 866.177C1406.72 863.896 1395.79 860.647 1384.25 855.808C1361.23 846.13 1340.35 831.683 1322.72 813.917C1240.39 730.827 1238.45 594.025 1280.07 491.441C1295.14 454.182 1315.74 418.374 1339.8 386.23C1349.75 372.889 1360.54 360.239 1372.91 348.971C1378.17 344.132 1383.7 339.57 1389.5 335.422C1389.99 335.077 1390.49 334.731 1390.99 334.385C1391.05 334.34 1391.12 334.295 1391.18 334.25C1391.16 334.292 1393.83 332.516 1394.13 332.312C1396.15 331.062 1398.21 329.912 1400.24 328.77C1401.14 328.27 1402.03 327.771 1402.91 327.265C1403.73 326.917 1404.54 326.569 1405.35 326.18C1406.07 326.072 1406.65 325.978 1407.11 325.899C1408.17 325.917 1409.24 325.917 1410.31 325.917C1410.98 325.917 1411.66 325.917 1412.33 325.922C1412.57 325.95 1413.06 325.993 1413.66 326.046C1414.72 326.138 1416.09 326.258 1416.88 326.367C1419.44 326.712 1421.92 327.196 1424.41 327.749C1426.49 328.233 1428.56 328.717 1430.57 329.339C1428.74 328.809 1431.07 329.588 1432.98 330.227C1433.81 330.504 1434.56 330.755 1434.85 330.86C1439.41 332.588 1443.84 334.593 1448.12 336.943C1456.42 341.367 1464.16 346.759 1471.42 352.704C1497.21 374.133 1518.02 404.341 1528.8 436.14C1532.25 446.329 1534.18 457.28 1536.06 467.982C1536.52 470.567 1536.97 473.138 1537.44 475.68C1540.07 489.989 1542.21 504.368 1544.01 518.815C1547.26 545.913 1548.99 573.218 1548.85 600.523C1548.36 686.655 1528.87 775.621 1478.61 846.96C1473.56 854.149 1468.24 861.061 1462.57 867.767C1462.25 868.147 1461.94 868.524 1461.62 868.9ZM1406.21 325.875C1406.26 325.878 1406.31 325.88 1406.37 325.883C1406.62 325.889 1406.86 325.894 1407.11 325.899C1407.95 325.751 1408.37 325.652 1408.48 325.598C1407.92 325.536 1407.04 325.71 1406.24 325.868C1406.23 325.871 1406.22 325.873 1406.21 325.875ZM1405.82 325.95C1405.82 325.951 1405.82 325.951 1405.82 325.952C1405.66 326.03 1405.51 326.106 1405.35 326.18C1405.2 326.203 1405.05 326.226 1404.88 326.25C1405.03 326.19 1405.21 326.112 1405.42 326.022C1405.55 326.001 1405.68 325.977 1405.82 325.95ZM1405.93 325.9C1405.89 325.916 1405.86 325.933 1405.82 325.95C1405.95 325.926 1406.07 325.901 1406.21 325.875C1406.17 325.873 1406.13 325.871 1406.09 325.869C1406.07 325.873 1406.05 325.878 1406.02 325.883C1405.99 325.888 1405.96 325.894 1405.93 325.9ZM1405.51 325.982C1405.48 325.996 1405.45 326.009 1405.42 326.022C1405.33 326.037 1405.25 326.049 1405.17 326.06C1405.19 326.052 1405.22 326.045 1405.25 326.038C1405.34 326.019 1405.42 326 1405.51 325.982ZM1408.5 325.584C1408.44 325.57 1408.38 325.558 1408.31 325.547C1408.46 325.544 1408.54 325.555 1408.5 325.584ZM1404.57 326.192C1404.02 326.317 1403.48 326.441 1402.93 326.525C1403.29 326.476 1403.63 326.429 1403.95 326.384C1404.1 326.335 1404.32 326.269 1404.57 326.192ZM1404.1 326.362C1404.29 326.336 1404.46 326.311 1404.63 326.287C1404.59 326.316 1404.57 326.343 1404.57 326.367C1404.57 326.375 1404.69 326.33 1404.88 326.25C1404.8 326.262 1404.71 326.274 1404.63 326.287C1404.69 326.24 1404.79 326.186 1404.92 326.129C1404.97 326.116 1405.01 326.103 1405.06 326.09C1405.09 326.08 1405.13 326.07 1405.17 326.06C1405.15 326.062 1405.14 326.063 1405.13 326.065C1405.09 326.073 1405.06 326.081 1405.02 326.089C1404.99 326.102 1404.95 326.116 1404.92 326.129C1404.57 326.231 1404.3 326.307 1404.1 326.362ZM1440.6 890.386C1436.9 893.726 1433.11 896.941 1429.18 900.049C1426.42 902.261 1423.65 904.404 1420.82 906.409C1419.33 907.495 1417.77 908.581 1416.2 909.667C1412.92 911.737 1415.05 910.477 1416.12 909.727L1416.13 909.721C1416.15 909.703 1416.18 909.685 1416.2 909.667C1416.55 909.449 1416.96 909.194 1417.43 908.897C1417.1 909.113 1416.77 909.33 1416.44 909.544C1415.62 910.084 1414.82 910.614 1413.97 911.109C1411.14 912.906 1408.24 914.635 1405.33 916.294C1404.61 916.708 1403.88 917.106 1403.16 917.503C1402.43 917.9 1401.7 918.298 1400.98 918.713C1400.53 918.955 1400.1 919.18 1399.67 919.404C1399.51 919.484 1399.36 919.564 1399.2 919.645C1398.62 919.909 1398.04 920.176 1397.45 920.443C1395.36 921.396 1393.25 922.356 1391.18 923.249C1390.95 923.333 1390.73 923.417 1390.5 923.501C1389.4 923.917 1388.29 924.33 1387.17 924.7C1386.86 924.779 1386.56 924.853 1386.28 924.924C1386.38 924.891 1386.48 924.861 1386.56 924.834C1387.35 924.57 1386.76 924.681 1382.77 925.835C1382.83 925.785 1381.77 925.955 1378.5 926.623C1377.85 926.711 1377.18 926.773 1376.51 926.835C1375.76 926.905 1375.02 926.974 1374.29 927.077C1374.28 927.079 1374.26 927.081 1374.24 927.083C1371.08 927.15 1367.99 927.214 1364.82 927.147C1363.86 927.147 1362.89 927.085 1361.92 927.024C1361.44 926.993 1360.95 926.962 1360.47 926.939C1364.86 927.063 1364.31 927.039 1362.76 926.969C1361.73 926.923 1360.25 926.856 1359.5 926.801C1353.14 926.11 1346.85 925.004 1340.7 923.345C1340.45 923.277 1339.79 923.086 1339.08 922.882C1338.4 922.685 1337.68 922.477 1337.25 922.357C1337.15 922.325 1337.05 922.291 1336.95 922.255C1335.96 921.927 1334.61 921.478 1334.27 921.34C1331.23 920.303 1328.25 919.059 1325.28 917.814C1319.27 915.188 1313.46 912.077 1307.93 908.552C1282.42 892.376 1264.59 869.564 1250.97 842.605C1242.14 825.153 1235.51 806.69 1230.56 787.749C1254.23 828.031 1289.75 861.574 1333.85 878.205C1367.99 891.106 1404.48 894.056 1440.6 890.386ZM1382.4 925.943C1381.64 926.127 1379.91 926.475 1378.72 926.594C1378.65 926.604 1378.58 926.614 1378.5 926.623C1377.95 926.737 1377.33 926.865 1376.64 927.008C1377.7 926.789 1378.75 926.626 1379.78 926.465C1380.38 926.372 1380.97 926.28 1381.55 926.179C1381.59 926.172 1381.62 926.165 1381.66 926.157C1381.2 926.291 1380.7 926.437 1380.17 926.594C1380.9 926.386 1381.64 926.213 1382.38 926.04C1383.13 925.868 1383.87 925.695 1384.59 925.488C1384.79 925.43 1384.99 925.372 1385.19 925.313C1385.65 925.186 1386.1 925.053 1386.5 924.922C1387.02 924.768 1387.54 924.616 1388.07 924.477C1387.76 924.554 1387.46 924.629 1387.17 924.7C1387.07 924.733 1386.97 924.765 1386.88 924.796C1386.76 924.838 1386.63 924.88 1386.5 924.922C1386.3 924.98 1386.11 925.039 1385.92 925.097C1385.67 925.17 1385.43 925.242 1385.19 925.313C1383.88 925.679 1382.55 925.99 1382.23 926.034C1382.03 926.079 1381.84 926.121 1381.66 926.157C1381.92 926.082 1382.16 926.011 1382.4 925.943Z" fill="url(#paint2_radial_1933_3381)" fill-opacity="0.1"/>
      <defs>
      <radialGradient id="paint0_radial_1933_3381" cx="0" cy="0" r="1" gradientUnits="userSpaceOnUse" gradientTransform="translate(1839.86 361.087) rotate(148.825) scale(734.692 1867.94)">
      <stop stop-color="#0A65D1"/>
      <stop offset="1" stop-color="#00DADE"/>
      </radialGradient>
      <radialGradient id="paint1_radial_1933_3381" cx="0" cy="0" r="1" gradientUnits="userSpaceOnUse" gradientTransform="translate(1839.86 361.087) rotate(148.825) scale(734.692 1867.94)">
      <stop stop-color="#0A65D1"/>
      <stop offset="1" stop-color="#00DADE"/>
      </radialGradient>
      <radialGradient id="paint2_radial_1933_3381" cx="0" cy="0" r="1" gradientUnits="userSpaceOnUse" gradientTransform="translate(1839.86 361.087) rotate(148.825) scale(734.692 1867.94)">
      <stop stop-color="#0A65D1"/>
      <stop offset="1" stop-color="#00DADE"/>
      </radialGradient>
      </defs>
   </symbol>
   <symbol id="bg-methods" viewBox="0 0 1319 1231">
       <path d="M-971.683 1088.46C-953.4 1110.76 -932.024 1131.05 -909.967 1149.57C-867.534 1185.21 -818.143 1215.79 -763.204 1226.85C-691.664 1241.27 -612.802 1217.29 -559.636 1167.82C-525.981 1136.51 -501.195 1097.29 -480.684 1056.51C-465.766 1026.89 -452.441 995.667 -446.437 962.856C-440.434 930 -445.573 891.182 -484.14 884.128C-507.153 879.941 -532.621 885.812 -554.27 893.457C-576.055 901.103 -596.52 912.252 -614.576 926.678C-649.732 954.756 -675.337 994.621 -682.386 1039.35C-688.389 1077.44 -680.385 1123.5 -653.597 1152.76C-631.995 1176.33 -599.977 1180.11 -569.687 1176.2C-525.026 1170.42 -482.639 1151.71 -444.391 1128.46C-358.07 1075.9 -284.166 1002.72 -217.22 927.725C-156.913 860.191 -97.1531 786.878 -56.2668 705.556C-46.3523 685.852 -32.0262 658.729 -35.892 635.702C-40.8492 606.441 -87.1476 617.59 -105.612 621.003C-150.956 629.377 -195.298 649.127 -227.953 682.302C-255.286 710.016 -274.66 744.283 -285.803 781.554C-306.496 850.726 -302.449 935.506 -251.784 991.208C-181.2 1068.8 -58.4953 1039.17 25.3238 1003.36C60.8889 988.159 94.9077 969.273 127.38 948.385C161.99 926.132 194.145 900.556 228.391 877.757C296.656 832.25 369.014 793.25 438.78 750.063C539.927 687.49 699.833 587.418 655.218 445.116C644.939 412.351 627.339 377.628 596.14 360.381C562.621 341.905 521.371 348.458 486.579 359.38C407.49 384.272 344.864 448.848 298.43 515.152C251.995 581.457 211.427 664.827 210.244 748.333C209.744 782.237 217.203 816.913 237.987 844.355C261.909 875.937 298.157 892.775 336.223 900.784C403.306 914.891 475.573 905.244 542.11 893.093C626.748 877.621 709.657 850.453 786.882 812.408C926.55 743.646 1047.8 641.345 1141.58 517.2C1221.49 411.395 1283.88 288.251 1308.99 157.371C1318.68 106.721 1322.45 54.3876 1315.27 3.10053C1314.08 -5.4549 1260.87 5.14837 1262.55 17.2534C1277.93 126.972 1246.27 240.514 1201.47 339.857C1144.94 465.185 1060.72 578.636 958.249 670.151C903.219 719.3 842.776 762.168 777.695 796.89C745.586 814.001 711.021 829.474 678.822 841.306C643.302 854.366 608.601 864.469 573.582 871.75C511.957 884.629 449.922 893.73 389.025 883.264C354.188 877.257 318.577 863.104 294.882 835.344C248.538 781.053 260.181 699.959 281.557 637.841C307.98 561.115 354.506 487.848 412.129 431.6C425.545 418.494 439.735 406.207 454.925 395.24C456.744 393.92 458.564 392.646 460.428 391.372C464.158 388.732 459.564 391.872 462.702 389.824C466.477 387.367 470.297 384.955 474.209 382.68C477.438 380.768 480.758 379.039 484.078 377.219C489.399 374.306 480.121 378.948 485.579 376.445C487.58 375.535 489.535 374.579 491.536 373.715C493.128 372.987 494.811 372.395 496.403 371.667C498.904 370.529 489.945 373.897 496.767 371.576C498.54 370.984 500.36 370.393 502.133 369.756C505.135 368.663 494.538 372.076 501.587 369.983C502.451 369.71 503.361 369.573 504.225 369.3C508.728 367.981 500.86 369.983 500.814 370.074C501.133 369.482 505.453 369.164 506.044 369.027C511.729 367.799 500.223 369.482 505.271 369.164C507.136 369.027 509.092 368.845 510.911 368.618C502.861 369.756 513.458 368.754 515.868 368.754C520.643 368.754 514.958 368.527 516.823 368.754C518.688 368.982 520.734 369.164 522.69 369.482C525.601 369.938 528.466 370.575 531.286 371.303C534.742 372.213 530.422 370.848 533.787 372.076C535.333 372.622 536.88 373.214 538.38 373.806C567.806 386.093 585.588 414.08 596.822 442.704C606.6 467.597 612.376 493.946 610.011 520.795C607.555 548.282 596.458 574.176 581.404 597.066C544.611 652.995 486.579 693.861 431.276 729.766C365.421 772.544 296.428 810.178 229.71 851.545C163.991 892.32 104.322 942.333 36.057 978.966C22.0038 986.52 8.90561 992.846 -6.51202 999.308C-15.1986 1002.95 -12.9702 1002.13 -21.6568 1005.27C-25.0678 1006.5 -28.5242 1007.73 -31.9352 1008.86C-33.2996 1009.32 -34.6639 1009.73 -35.9828 1010.18C-41.4859 1012.1 -30.9802 1008.82 -38.0295 1010.82C-40.9857 1011.64 -43.8964 1012.51 -46.8526 1013.28C-48.6718 1013.78 -59.132 1016.24 -51.264 1014.46C-57.4038 1015.83 -63.5436 1016.97 -69.6833 1018.06C-62.6795 1016.83 -72.0938 1018.33 -73.822 1018.56C-76.6872 1018.88 -79.5524 1019.15 -82.4631 1019.42C-88.1026 1019.97 -81.4171 1019.56 -86.1015 1019.65C-89.1032 1019.7 -92.1048 1019.83 -95.1065 1019.83C-105.703 1019.83 -110.524 1019.56 -122.531 1017.47C-131.672 1015.87 -139.222 1013.92 -146.999 1011C-162.871 1005.09 -177.607 996.35 -190.296 985.11C-215.173 963.129 -230.591 932.139 -238.277 900.238C-255.013 830.793 -238.822 752.293 -195.89 695.226C-185.293 681.164 -174.514 670.106 -160.052 659.139C-158.232 657.773 -156.413 656.454 -154.594 655.134C-150.546 652.221 -155.822 655.725 -151.547 653.132C-147.636 650.765 -143.724 648.535 -139.722 646.305C-134.356 643.347 -143.042 647.625 -137.403 645.168C-135.492 644.349 -133.628 643.484 -131.718 642.665C-125.351 639.889 -133.4 643.074 -130.717 642.255C-128.034 641.436 -125.351 640.435 -122.758 639.525C-128.261 641.436 -126.306 640.662 -122.212 639.525C-114.936 637.477 -124.714 639.843 -121.621 639.297C-119.256 638.888 -116.8 638.478 -114.481 637.886C-110.479 636.931 -116.164 638.114 -116.618 638.16C-114.89 637.932 -113.207 637.659 -111.479 637.477C-109.251 637.204 -106.977 637.022 -104.748 636.794C-99.7 636.294 -108.341 636.931 -105.067 636.794C-103.793 636.749 -102.52 636.703 -101.201 636.612C-95.152 636.339 -103.793 636.066 -99.1087 636.703C-94.7882 637.295 -99.9274 635.338 -96.8348 637.34C-95.5613 638.205 -94.197 638.842 -92.969 639.798C-91.3772 641.026 -93.0145 638.888 -91.4682 641.573C-90.6041 643.074 -89.8309 644.622 -89.3306 646.305C-83.2363 665.237 -95.061 688.127 -103.156 705.465C-118.756 739.004 -139.04 770.45 -160.142 800.804C-215.309 880.169 -279.39 954.165 -349.338 1020.83C-383.311 1053.23 -419.059 1084.09 -457.534 1111.12C-466.357 1117.31 -471.087 1120.49 -481.639 1127C-490.052 1132.19 -498.603 1137.15 -507.38 1141.75C-508.426 1142.29 -514.202 1145.25 -511.155 1143.7C-508.108 1142.16 -513.793 1144.98 -514.839 1145.48C-519.068 1147.48 -523.344 1149.39 -527.71 1151.21C-531.257 1152.67 -533.258 1153.21 -528.21 1151.44C-530.211 1152.12 -532.167 1152.9 -534.122 1153.62C-536.078 1154.35 -538.033 1154.9 -539.944 1155.58C-542.854 1156.63 -532.667 1153.62 -539.944 1155.49C-540.99 1155.76 -544.855 1156.22 -545.583 1156.95C-543.673 1155.04 -538.625 1155.49 -541.854 1156.08C-542.945 1156.26 -544.082 1156.54 -545.174 1156.76C-546.447 1157.04 -552.451 1158.04 -547.357 1157.22C-542.263 1156.4 -549.312 1157.4 -550.54 1157.54C-551.223 1157.63 -551.95 1157.63 -552.632 1157.72C-556.635 1158.4 -547.129 1157.72 -551.177 1157.63C-552.723 1157.63 -554.224 1157.72 -555.771 1157.72C-557.317 1157.72 -558.772 1157.63 -560.273 1157.63C-563.775 1157.58 -556.862 1157.95 -559.227 1157.72C-560.364 1157.58 -561.501 1157.54 -562.593 1157.36C-574.463 1155.58 -582.604 1153.21 -593.837 1144.61C-620.261 1124.41 -630.676 1084.54 -631.494 1052.55C-632.54 1010.14 -614.076 968.272 -585.423 938.191C-578.556 930.956 -571.052 924.357 -563.093 918.35C-561.365 917.03 -559.591 915.802 -557.863 914.527C-557.09 913.981 -554.361 912.206 -557.499 914.254C-556.726 913.754 -555.953 913.208 -555.134 912.753C-551.041 910.25 -546.902 907.883 -542.627 905.608C-544.401 906.563 -544.901 906.609 -541.126 904.971C-538.898 904.015 -532.121 902.195 -540.126 904.425C-539.307 904.197 -534.577 901.967 -534.259 902.377C-534.077 902.604 -541.763 904.334 -537.715 903.423C-536.578 903.15 -535.396 902.832 -534.259 902.513C-531.666 901.694 -541.399 903.879 -534.532 902.695C-532.53 902.331 -541.126 903.059 -534.441 902.786C-531.257 902.65 -540.171 902.695 -534.213 902.786C-533.349 902.786 -532.485 902.786 -531.621 902.786C-527.982 902.695 -535.623 902.24 -532.076 902.741C-524.253 903.879 -523.344 903.469 -516.34 907.61C-510.882 910.841 -507.471 914.254 -504.333 919.442C-495.51 934.096 -495.646 952.754 -497.829 969.136C-501.741 998.307 -513.338 1026.52 -525.845 1052.92C-544.583 1092.6 -567.05 1132.19 -597.748 1163.95C-609.346 1175.97 -622.216 1187.25 -636.497 1195.99C-643.774 1200.45 -647.048 1202.23 -653.597 1205.05C-653.37 1204.96 -660.328 1207.73 -656.872 1206.46C-653.416 1205.18 -660.374 1207.64 -660.147 1207.6C-661.329 1208.05 -665.286 1209.14 -659.555 1207.51C-661.647 1208.1 -663.785 1208.64 -665.922 1209.23C-659.01 1207.32 -669.652 1209.92 -671.562 1210.24C-666.013 1209.28 -676.428 1210.74 -677.747 1210.87C-678.338 1210.92 -681.886 1211.15 -678.429 1210.96C-680.158 1211.06 -681.931 1211.1 -683.66 1211.15C-687.48 1211.24 -691.346 1211.15 -695.166 1210.96C-706.809 1210.33 -721.271 1207.64 -733.642 1204.27C-783.306 1190.8 -828.24 1160 -866.67 1126.59C-885.362 1110.35 -904.1 1092.37 -918.881 1074.35C-924.338 1067.71 -940.256 1072.62 -947.124 1074.44C-949.17 1074.99 -975.366 1083.86 -971.637 1088.46H-971.683Z" />
   </symbol>
   <symbol id="bg-action" viewBox="0 0 930 520">
      <path d="M121.212 372.007C135.252 389.57 151.667 405.555 168.606 420.143C201.192 448.207 239.121 472.293 281.311 481.003C336.25 492.365 396.811 473.476 437.639 434.516C463.484 409.857 482.519 378.961 498.27 346.846C509.726 323.513 519.959 298.925 524.569 273.083C529.18 247.205 525.233 216.632 495.616 211.076C477.943 207.779 458.385 212.403 441.76 218.424C425.031 224.446 409.314 233.227 395.449 244.589C368.451 266.703 348.788 298.101 343.374 333.334C338.764 363.333 344.911 399.606 365.482 422.652C382.072 441.218 406.66 444.193 429.921 441.111C464.218 436.559 496.768 421.828 526.141 403.512C592.43 362.115 649.185 304.481 700.595 245.413C746.907 192.224 792.799 134.482 824.198 70.4323C831.812 54.9127 842.813 33.5508 839.844 15.4147C836.038 -7.63172 800.483 1.1496 786.303 3.83775C751.482 10.4327 717.43 25.9881 692.353 52.117C671.362 73.9448 656.484 100.934 647.927 130.288C632.036 184.768 635.144 251.542 674.052 295.413C728.257 356.524 822.486 333.19 886.855 304.983C914.167 293.011 940.291 278.137 965.228 261.685C991.807 244.159 1016.5 224.015 1042.8 206.059C1095.22 170.217 1150.79 139.5 1204.36 105.486C1282.04 56.203 1404.84 -22.6137 1370.58 -134.692C1362.68 -160.498 1349.17 -187.846 1325.21 -201.43C1299.47 -215.982 1267.79 -210.82 1241.07 -202.218C1180.34 -182.613 1132.24 -131.753 1096.58 -79.5309C1060.92 -27.309 1029.77 38.3536 1028.86 104.124C1028.48 130.826 1034.21 158.138 1050.17 179.751C1068.54 204.625 1096.37 217.886 1125.61 224.195C1177.12 235.306 1232.62 227.707 1283.72 218.137C1348.71 205.951 1412.38 184.553 1471.69 154.589C1578.94 100.432 1672.06 19.8592 1744.07 -77.918C1805.44 -161.251 1853.36 -258.239 1872.63 -361.321C1880.07 -401.213 1882.97 -442.432 1877.45 -482.826C1876.55 -489.564 1835.68 -481.213 1836.98 -471.679C1848.78 -385.264 1824.47 -295.838 1790.07 -217.594C1746.66 -118.885 1681.97 -29.5312 1603.29 42.5472C1561.03 81.2566 1514.61 115.02 1464.63 142.367C1439.97 155.844 1413.43 168.03 1388.7 177.349C1361.43 187.636 1334.78 195.593 1307.88 201.327C1260.56 211.471 1212.92 218.639 1166.16 210.395C1139.4 205.664 1112.06 194.517 1093.86 172.654C1058.27 129.894 1067.21 66.0237 1083.63 17.0993C1103.92 -43.3304 1139.65 -101.036 1183.9 -145.337C1194.2 -155.659 1205.1 -165.337 1216.76 -173.975C1218.16 -175.014 1219.56 -176.018 1220.99 -177.021C1223.85 -179.1 1220.33 -176.627 1222.74 -178.24C1225.63 -180.175 1228.57 -182.075 1231.57 -183.867C1234.05 -185.372 1236.6 -186.734 1239.15 -188.168C1243.24 -190.462 1236.11 -186.806 1240.3 -188.777C1241.84 -189.494 1243.34 -190.247 1244.88 -190.928C1246.1 -191.501 1247.39 -191.967 1248.62 -192.541C1250.54 -193.437 1243.66 -190.785 1248.9 -192.613C1250.26 -193.078 1251.65 -193.544 1253.02 -194.046C1255.32 -194.906 1247.18 -192.218 1252.6 -193.867C1253.26 -194.082 1253.96 -194.19 1254.62 -194.405C1258.08 -195.444 1252.04 -193.867 1252 -193.795C1252.25 -194.261 1255.57 -194.512 1256.02 -194.62C1260.39 -195.587 1251.55 -194.261 1255.43 -194.512C1256.86 -194.62 1258.36 -194.763 1259.76 -194.942C1253.58 -194.046 1261.71 -194.835 1263.56 -194.835C1267.23 -194.835 1262.87 -195.014 1264.3 -194.835C1265.73 -194.656 1267.3 -194.512 1268.8 -194.261C1271.04 -193.903 1273.24 -193.401 1275.4 -192.828C1278.06 -192.111 1274.74 -193.186 1277.32 -192.218C1278.51 -191.788 1279.7 -191.322 1280.85 -190.856C1303.45 -181.179 1317.11 -159.136 1325.73 -136.591C1333.24 -116.986 1337.68 -96.2333 1335.86 -75.0865C1333.97 -53.4379 1325.45 -33.0437 1313.89 -15.0151C1285.64 29.0347 1241.07 61.2209 1198.6 89.5002C1148.03 123.192 1095.05 152.833 1043.81 185.414C993.343 217.528 947.521 256.918 895.097 285.771C884.305 291.721 874.246 296.703 862.406 301.793C855.736 304.66 857.447 304.015 850.776 306.488C848.157 307.456 845.502 308.423 842.883 309.32C841.835 309.678 840.787 310.001 839.775 310.359C835.549 311.864 843.616 309.284 838.203 310.861C835.933 311.506 833.697 312.187 831.427 312.796C830.03 313.19 821.997 315.126 828.04 313.728C823.325 314.803 818.61 315.699 813.895 316.56C819.273 315.592 812.044 316.775 810.716 316.954C808.516 317.205 806.316 317.42 804.08 317.635C799.75 318.065 804.884 317.742 801.286 317.814C798.981 317.85 796.676 317.957 794.371 317.957C786.233 317.957 782.531 317.742 773.311 316.094C766.291 314.839 760.493 313.298 754.521 311.004C742.332 306.345 731.016 299.463 721.271 290.61C702.167 273.298 690.327 248.89 684.425 223.765C671.572 169.07 684.006 107.242 716.976 62.2961C725.113 51.2209 733.391 42.5113 744.497 33.8734C745.894 32.7981 747.291 31.7587 748.688 30.7193C751.797 28.4254 747.745 31.1852 751.028 29.1422C754.032 27.2784 757.035 25.5222 760.109 23.7659C764.23 21.4362 757.559 24.8053 761.89 22.8699C763.357 22.2247 764.789 21.5437 766.256 20.8985C771.145 18.7122 764.964 21.2211 767.024 20.576C769.085 19.9308 771.145 19.1423 773.136 18.4254C768.91 19.9308 770.412 19.3215 773.555 18.4254C779.143 16.8125 771.634 18.6764 774.009 18.2463C775.825 17.9237 777.711 17.6011 779.493 17.1351C782.566 16.3824 778.2 17.3144 777.851 17.3502C779.178 17.171 780.471 16.9559 781.798 16.8126C783.509 16.5975 785.255 16.4542 786.967 16.2749C790.844 15.8807 784.208 16.3825 786.722 16.2749C787.7 16.2391 788.678 16.2032 789.691 16.1315C794.336 15.9165 787.7 15.7015 791.298 16.2032C794.616 16.6692 790.669 15.128 793.044 16.705C794.022 17.386 795.07 17.8879 796.013 18.6405C797.235 19.6083 795.978 17.9237 797.165 20.0384C797.829 21.2212 798.422 22.4398 798.807 23.7659C803.487 38.6762 794.406 56.7048 788.189 70.3606C776.21 96.7762 760.633 121.543 744.427 145.45C702.062 207.958 652.852 266.237 599.136 318.746C573.046 344.266 545.595 368.566 516.047 389.857C509.272 394.731 505.64 397.24 497.537 402.366C491.076 406.451 484.51 410.358 477.769 413.978C476.966 414.408 472.53 416.738 474.87 415.52C477.21 414.301 472.844 416.523 472.041 416.917C468.793 418.494 465.51 420 462.157 421.433C459.433 422.58 457.896 423.011 461.773 421.613C460.236 422.15 458.734 422.76 457.232 423.333C455.731 423.907 454.229 424.337 452.762 424.874C450.527 425.699 458.35 423.333 452.762 424.803C451.959 425.018 448.99 425.376 448.431 425.95C449.898 424.444 453.775 424.803 451.295 425.269C450.457 425.412 449.584 425.627 448.746 425.806C447.768 426.021 443.157 426.81 447.069 426.165C450.981 425.519 445.567 426.308 444.624 426.415C444.1 426.487 443.542 426.487 443.018 426.559C439.944 427.097 447.244 426.559 444.135 426.487C442.948 426.487 441.795 426.559 440.608 426.559C439.42 426.559 438.303 426.487 437.15 426.487C434.461 426.451 439.77 426.738 437.953 426.559C437.08 426.451 436.207 426.416 435.369 426.272C426.253 424.874 420.002 423.011 411.375 416.236C391.083 400.322 383.085 368.925 382.456 343.728C381.653 310.323 395.833 277.348 417.836 253.657C423.11 247.958 428.873 242.761 434.985 238.03C436.312 236.99 437.674 236.023 439.001 235.019C439.595 234.589 441.691 233.191 439.281 234.804C439.874 234.41 440.468 233.98 441.097 233.621C444.24 231.65 447.418 229.786 450.701 227.994C449.339 228.747 448.955 228.782 451.854 227.492C453.565 226.739 458.769 225.306 452.622 227.062C453.251 226.883 456.883 225.127 457.128 225.449C457.267 225.628 451.365 226.99 454.473 226.273C455.346 226.058 456.255 225.808 457.128 225.557C459.118 224.912 451.644 226.632 456.918 225.7C458.455 225.413 451.854 225.987 456.988 225.772C459.433 225.664 452.587 225.7 457.163 225.772C457.826 225.772 458.49 225.772 459.153 225.772C461.947 225.7 456.08 225.342 458.804 225.736C464.811 226.632 465.51 226.309 470.888 229.571C475.08 232.116 477.699 234.804 480.109 238.89C486.884 250.431 486.78 265.126 485.103 278.029C482.1 301.004 473.194 323.226 463.589 344.015C449.2 375.269 431.946 406.451 408.371 431.469C399.465 440.932 389.581 449.82 378.615 456.702C373.026 460.215 370.512 461.612 365.482 463.835C365.657 463.763 360.313 465.949 362.968 464.946C365.622 463.942 360.279 465.878 360.453 465.842C359.545 466.2 356.507 467.06 360.907 465.77C359.301 466.236 357.659 466.666 356.018 467.132C361.326 465.627 353.154 467.67 351.687 467.921C355.948 467.168 347.95 468.315 346.937 468.422C346.483 468.458 343.759 468.637 346.413 468.494C345.086 468.566 343.724 468.602 342.397 468.637C339.463 468.709 336.494 468.637 333.56 468.494C324.619 467.992 313.513 465.878 304.013 463.225C265.874 452.616 231.367 428.351 201.855 402.043C187.501 389.247 173.111 375.09 161.76 360.896C157.569 355.663 145.345 359.534 140.071 360.968C138.5 361.398 118.383 368.387 121.246 372.007H121.212Z" fill-opacity="0.1"/>
   </symbol>
   <symbol id="bg-medics" viewBox="0 0 787 583">
     <path fill-rule="evenodd" clip-rule="evenodd" d="M0 437.572V441.287C18.1313 463.26 39.2497 483.283 61.0334 501.574C103.466 537.207 152.857 567.788 207.796 578.846C275.215 592.441 349.136 571.926 401.925 528.116C446.361 522.246 488.536 503.607 526.609 480.459C593.71 439.601 653.308 386.285 707.967 329.342C711.428 334.134 715.173 338.763 719.216 343.208C738.53 364.439 761.746 377.642 787 384.888V342.352C784.851 340.67 782.751 338.923 780.705 337.11C765.612 323.775 754.001 307.124 745.487 288.965C748.263 285.889 751.028 282.808 753.781 279.725C764.911 267.261 776.022 254.6 787 241.728V186.048C769.797 209.28 751.837 232.009 733.202 254.183C733.039 253.535 732.88 252.887 732.723 252.238C715.987 182.793 732.178 104.293 775.111 47.2261C778.992 42.0755 782.898 37.3278 787 32.84V0.894531C770.943 9.98298 756.066 21.0755 743.047 34.3019C715.714 62.0161 696.34 96.2833 685.197 133.554C669.189 187.066 667.987 249.919 691.72 301.424C669.146 326.043 645.752 349.873 621.662 372.833C587.689 405.235 551.942 436.089 513.466 463.12C504.643 469.309 499.913 472.495 489.361 479.003C480.948 484.19 472.397 489.151 463.62 493.747C463.213 493.959 462.09 494.537 461.049 495.072C460.872 495.163 460.698 495.253 460.529 495.34C460.141 495.526 459.254 495.963 458.366 496.399C457.445 496.852 456.524 497.305 456.161 497.479C451.932 499.481 447.656 501.392 443.29 503.213C442.965 503.346 442.652 503.472 442.356 503.59C441.096 504.029 439.853 504.5 438.615 504.97C438.035 505.189 437.457 505.409 436.878 505.624C435.809 506.022 434.741 506.366 433.68 506.707C433.133 506.883 432.588 507.058 432.046 507.239C431.76 507.311 431.431 507.394 431.056 507.49C430.853 507.543 430.543 507.603 430.169 507.671C429.845 507.427 426.988 507.553 425.551 508.821C425.303 508.87 424.981 508.93 424.628 508.994C424.101 509.061 423.393 509.155 422.701 509.248C422.475 509.278 422.25 509.308 422.034 509.336C450.359 479.964 472.036 444.852 490.316 408.511C505.234 378.886 518.559 347.667 524.563 314.856C530.566 282 525.427 243.182 486.86 236.128C463.847 231.942 438.379 237.812 416.73 245.457C394.946 253.103 374.48 264.252 356.424 278.678C321.268 306.756 295.663 346.621 288.614 391.355C282.611 429.445 290.615 475.498 317.403 504.76C329.426 517.88 344.676 524.868 361.058 527.81C352.798 535.303 343.96 542.206 334.503 547.992C327.226 552.452 323.952 554.227 317.403 557.048C317.555 556.987 314.467 558.219 313.469 558.649C312.228 559.086 310.747 559.618 310.854 559.597C310.563 559.708 310.104 559.859 309.663 559.998C309.079 560.156 308.492 560.313 307.904 560.47C306.983 560.717 306.058 560.964 305.133 561.22C309.487 560.015 306.712 560.639 303.652 561.328C302.741 561.533 301.805 561.743 301.024 561.913C300.718 561.905 298.147 562.242 296.018 562.521C294.744 562.688 293.629 562.834 293.253 562.873C293.118 562.883 292.828 562.903 292.504 562.926C291.868 562.969 291.097 563.022 291.078 563.032C289.872 563.08 288.658 563.111 287.463 563.143L287.34 563.146C283.52 563.237 279.654 563.146 275.834 562.964C264.191 562.327 249.729 559.642 237.358 556.275C187.694 542.804 142.76 511.996 104.33 478.593C85.6379 462.347 66.9003 444.371 52.1194 426.35C47.034 420.159 32.8664 424.004 25.4016 426.03C24.8552 426.179 24.3448 426.317 23.8765 426.441C22.2056 426.887 4.43774 432.884 0 437.572ZM385.601 502.261C382.921 500.749 380.152 498.902 377.163 496.614C350.739 476.409 340.324 436.544 339.506 404.552C338.46 362.139 356.924 320.272 385.577 290.191C392.444 282.956 399.948 276.357 407.907 270.35C408.966 269.542 410.042 268.767 411.114 267.996C411.792 267.508 412.468 267.021 413.137 266.527C413.641 266.171 414.976 265.293 414.976 265.292C414.975 265.292 414.649 265.505 413.734 266.102C413.868 266.014 414.002 265.926 414.136 265.837C414.7 265.462 415.271 265.083 415.866 264.753C419.858 262.312 423.892 260.001 428.055 257.778C428.496 257.576 429.094 257.309 429.874 256.971C431.319 256.351 434.678 255.367 434.676 255.361C434.675 255.358 433.687 255.641 430.875 256.425C431.133 256.353 431.78 256.082 432.555 255.758C432.842 255.637 433.147 255.51 433.457 255.382C434.121 255.22 434.8 255.044 435.474 254.862C435.561 254.848 435.652 254.833 435.748 254.817C435.989 254.809 436.259 254.799 436.559 254.786C436.58 254.786 436.6 254.785 436.619 254.784C436.674 254.785 436.73 254.786 436.787 254.786H439.239C440.223 254.928 441.095 255.045 441.883 255.15C447.13 255.854 448.654 256.059 454.66 259.61C460.118 262.841 463.529 266.254 466.667 271.442C475.49 286.096 475.354 304.754 473.171 321.137C469.259 350.307 457.662 378.522 445.155 404.916C429.025 439.077 410.131 473.171 385.601 502.261ZM436.741 254.377C436.637 254.243 436.062 254.391 435.306 254.659C435.332 254.657 435.357 254.655 435.383 254.653C435.872 254.543 436.387 254.437 436.741 254.377ZM434.321 255.032C434.094 255.121 433.863 255.215 433.633 255.31C434.133 255.185 434.689 255.043 435.191 254.907C434.801 254.969 434.516 255.009 434.321 255.032ZM428.373 257.608C428.289 257.653 428.208 257.696 428.13 257.737C428.211 257.694 428.292 257.651 428.373 257.608ZM428.045 257.782C427.464 258.086 427.077 258.262 427.03 258.274C426.984 258.286 427.274 258.134 428.045 257.782ZM425.455 508.909C425.442 508.921 425.43 508.934 425.417 508.947C425.43 508.934 425.444 508.921 425.459 508.908C425.458 508.908 425.456 508.909 425.455 508.909ZM425.467 508.901C425.502 508.871 425.543 508.842 425.589 508.813C425.679 508.795 425.759 508.779 425.826 508.764C426.159 508.695 426.496 508.622 426.835 508.548C427.607 508.379 428.388 508.208 429.146 508.082C430.035 507.919 430.297 507.767 430.169 507.671C430.012 507.7 429.843 507.73 429.666 507.761C428.245 508.012 426.313 508.354 425.589 508.813C425.576 508.816 425.564 508.818 425.551 508.821C425.521 508.847 425.492 508.874 425.464 508.901C425.465 508.901 425.466 508.901 425.467 508.901ZM439.772 504.551C439.615 504.592 440.3 504.321 442.279 503.621C440.91 504.162 439.928 504.51 439.772 504.551Z"/>
   </symbol>
</svg>
