<svg width="930" height="520" viewBox="0 0 930 520" fill="none" xmlns="http://www.w3.org/2000/svg">
<mask id="mask0_1948_4211" style="mask-type:alpha" maskUnits="userSpaceOnUse" x="0" y="0" width="930" height="520">
<rect width="930" height="520" fill="#D9D9D9"/>
</mask>
<g mask="url(#mask0_1948_4211)">
<path d="M121.212 372.007C135.252 389.57 151.667 405.555 168.606 420.143C201.192 448.207 239.121 472.293 281.311 481.003C336.25 492.365 396.811 473.476 437.639 434.516C463.484 409.857 482.519 378.961 498.27 346.846C509.726 323.513 519.959 298.925 524.569 273.083C529.18 247.205 525.233 216.632 495.616 211.076C477.943 207.779 458.385 212.403 441.76 218.424C425.031 224.446 409.314 233.227 395.449 244.589C368.451 266.703 348.788 298.101 343.374 333.334C338.764 363.333 344.911 399.606 365.482 422.652C382.072 441.218 406.66 444.193 429.921 441.111C464.218 436.559 496.768 421.828 526.141 403.512C592.43 362.115 649.185 304.481 700.595 245.413C746.907 192.224 792.799 134.482 824.198 70.4323C831.812 54.9127 842.813 33.5508 839.844 15.4147C836.038 -7.63172 800.483 1.1496 786.303 3.83775C751.482 10.4327 717.43 25.9881 692.353 52.117C671.362 73.9448 656.484 100.934 647.927 130.288C632.036 184.768 635.144 251.542 674.052 295.413C728.257 356.524 822.486 333.19 886.855 304.983C914.167 293.011 940.291 278.137 965.228 261.685C991.807 244.159 1016.5 224.015 1042.8 206.059C1095.22 170.217 1150.79 139.5 1204.36 105.486C1282.04 56.203 1404.84 -22.6137 1370.58 -134.692C1362.68 -160.498 1349.17 -187.846 1325.21 -201.43C1299.47 -215.982 1267.79 -210.82 1241.07 -202.218C1180.34 -182.613 1132.24 -131.753 1096.58 -79.5309C1060.92 -27.309 1029.77 38.3536 1028.86 104.124C1028.48 130.826 1034.21 158.138 1050.17 179.751C1068.54 204.625 1096.37 217.886 1125.61 224.195C1177.12 235.306 1232.62 227.707 1283.72 218.137C1348.71 205.951 1412.38 184.553 1471.69 154.589C1578.94 100.432 1672.06 19.8592 1744.07 -77.918C1805.44 -161.251 1853.36 -258.239 1872.63 -361.321C1880.07 -401.213 1882.97 -442.432 1877.45 -482.826C1876.55 -489.564 1835.68 -481.213 1836.98 -471.679C1848.78 -385.264 1824.47 -295.838 1790.07 -217.594C1746.66 -118.885 1681.97 -29.5312 1603.29 42.5472C1561.03 81.2566 1514.61 115.02 1464.63 142.367C1439.97 155.844 1413.43 168.03 1388.7 177.349C1361.43 187.636 1334.78 195.593 1307.88 201.327C1260.56 211.471 1212.92 218.639 1166.16 210.395C1139.4 205.664 1112.06 194.517 1093.86 172.654C1058.27 129.894 1067.21 66.0237 1083.63 17.0993C1103.92 -43.3304 1139.65 -101.036 1183.9 -145.337C1194.2 -155.659 1205.1 -165.337 1216.76 -173.975C1218.16 -175.014 1219.56 -176.018 1220.99 -177.021C1223.85 -179.1 1220.33 -176.627 1222.74 -178.24C1225.63 -180.175 1228.57 -182.075 1231.57 -183.867C1234.05 -185.372 1236.6 -186.734 1239.15 -188.168C1243.24 -190.462 1236.11 -186.806 1240.3 -188.777C1241.84 -189.494 1243.34 -190.247 1244.88 -190.928C1246.1 -191.501 1247.39 -191.967 1248.62 -192.541C1250.54 -193.437 1243.66 -190.785 1248.9 -192.613C1250.26 -193.078 1251.65 -193.544 1253.02 -194.046C1255.32 -194.906 1247.18 -192.218 1252.6 -193.867C1253.26 -194.082 1253.96 -194.19 1254.62 -194.405C1258.08 -195.444 1252.04 -193.867 1252 -193.795C1252.25 -194.261 1255.57 -194.512 1256.02 -194.62C1260.39 -195.587 1251.55 -194.261 1255.43 -194.512C1256.86 -194.62 1258.36 -194.763 1259.76 -194.942C1253.58 -194.046 1261.71 -194.835 1263.56 -194.835C1267.23 -194.835 1262.87 -195.014 1264.3 -194.835C1265.73 -194.656 1267.3 -194.512 1268.8 -194.261C1271.04 -193.903 1273.24 -193.401 1275.4 -192.828C1278.06 -192.111 1274.74 -193.186 1277.32 -192.218C1278.51 -191.788 1279.7 -191.322 1280.85 -190.856C1303.45 -181.179 1317.11 -159.136 1325.73 -136.591C1333.24 -116.986 1337.68 -96.2333 1335.86 -75.0865C1333.97 -53.4379 1325.45 -33.0437 1313.89 -15.0151C1285.64 29.0347 1241.07 61.2209 1198.6 89.5002C1148.03 123.192 1095.05 152.833 1043.81 185.414C993.343 217.528 947.521 256.918 895.097 285.771C884.305 291.721 874.246 296.703 862.406 301.793C855.736 304.66 857.447 304.015 850.776 306.488C848.157 307.456 845.502 308.423 842.883 309.32C841.835 309.678 840.787 310.001 839.775 310.359C835.549 311.864 843.616 309.284 838.203 310.861C835.933 311.506 833.697 312.187 831.427 312.796C830.03 313.19 821.997 315.126 828.04 313.728C823.325 314.803 818.61 315.699 813.895 316.56C819.273 315.592 812.044 316.775 810.716 316.954C808.516 317.205 806.316 317.42 804.08 317.635C799.75 318.065 804.884 317.742 801.286 317.814C798.981 317.85 796.676 317.957 794.371 317.957C786.233 317.957 782.531 317.742 773.311 316.094C766.291 314.839 760.493 313.298 754.521 311.004C742.332 306.345 731.016 299.463 721.271 290.61C702.167 273.298 690.327 248.89 684.425 223.765C671.572 169.07 684.006 107.242 716.976 62.2961C725.113 51.2209 733.391 42.5113 744.497 33.8734C745.894 32.7981 747.291 31.7587 748.688 30.7193C751.797 28.4254 747.745 31.1852 751.028 29.1422C754.032 27.2784 757.035 25.5222 760.109 23.7659C764.23 21.4362 757.559 24.8053 761.89 22.8699C763.357 22.2247 764.789 21.5437 766.256 20.8985C771.145 18.7122 764.964 21.2211 767.024 20.576C769.085 19.9308 771.145 19.1423 773.136 18.4254C768.91 19.9308 770.412 19.3215 773.555 18.4254C779.143 16.8125 771.634 18.6764 774.009 18.2463C775.825 17.9237 777.711 17.6011 779.493 17.1351C782.566 16.3824 778.2 17.3144 777.851 17.3502C779.178 17.171 780.471 16.9559 781.798 16.8126C783.509 16.5975 785.255 16.4542 786.967 16.2749C790.844 15.8807 784.208 16.3825 786.722 16.2749C787.7 16.2391 788.678 16.2032 789.691 16.1315C794.336 15.9165 787.7 15.7015 791.298 16.2032C794.616 16.6692 790.669 15.128 793.044 16.705C794.022 17.386 795.07 17.8879 796.013 18.6405C797.235 19.6083 795.978 17.9237 797.165 20.0384C797.829 21.2212 798.422 22.4398 798.807 23.7659C803.487 38.6762 794.406 56.7048 788.189 70.3606C776.21 96.7762 760.633 121.543 744.427 145.45C702.062 207.958 652.852 266.237 599.136 318.746C573.046 344.266 545.595 368.566 516.047 389.857C509.272 394.731 505.64 397.24 497.537 402.366C491.076 406.451 484.51 410.358 477.769 413.978C476.966 414.408 472.53 416.738 474.87 415.52C477.21 414.301 472.844 416.523 472.041 416.917C468.793 418.494 465.51 420 462.157 421.433C459.433 422.58 457.896 423.011 461.773 421.613C460.236 422.15 458.734 422.76 457.232 423.333C455.731 423.907 454.229 424.337 452.762 424.874C450.527 425.699 458.35 423.333 452.762 424.803C451.959 425.018 448.99 425.376 448.431 425.95C449.898 424.444 453.775 424.803 451.295 425.269C450.457 425.412 449.584 425.627 448.746 425.806C447.768 426.021 443.157 426.81 447.069 426.165C450.981 425.519 445.567 426.308 444.624 426.415C444.1 426.487 443.542 426.487 443.018 426.559C439.944 427.097 447.244 426.559 444.135 426.487C442.948 426.487 441.795 426.559 440.608 426.559C439.42 426.559 438.303 426.487 437.15 426.487C434.461 426.451 439.77 426.738 437.953 426.559C437.08 426.451 436.207 426.416 435.369 426.272C426.253 424.874 420.002 423.011 411.375 416.236C391.083 400.322 383.085 368.925 382.456 343.728C381.653 310.323 395.833 277.348 417.836 253.657C423.11 247.958 428.873 242.761 434.985 238.03C436.312 236.99 437.674 236.023 439.001 235.019C439.595 234.589 441.691 233.191 439.281 234.804C439.874 234.41 440.468 233.98 441.097 233.621C444.24 231.65 447.418 229.786 450.701 227.994C449.339 228.747 448.955 228.782 451.854 227.492C453.565 226.739 458.769 225.306 452.622 227.062C453.251 226.883 456.883 225.127 457.128 225.449C457.267 225.628 451.365 226.99 454.473 226.273C455.346 226.058 456.255 225.808 457.128 225.557C459.118 224.912 451.644 226.632 456.918 225.7C458.455 225.413 451.854 225.987 456.988 225.772C459.433 225.664 452.587 225.7 457.163 225.772C457.826 225.772 458.49 225.772 459.153 225.772C461.947 225.7 456.08 225.342 458.804 225.736C464.811 226.632 465.51 226.309 470.888 229.571C475.08 232.116 477.699 234.804 480.109 238.89C486.884 250.431 486.78 265.126 485.103 278.029C482.1 301.004 473.194 323.226 463.589 344.015C449.2 375.269 431.946 406.451 408.371 431.469C399.465 440.932 389.581 449.82 378.615 456.702C373.026 460.215 370.512 461.612 365.482 463.835C365.657 463.763 360.313 465.949 362.968 464.946C365.622 463.942 360.279 465.878 360.453 465.842C359.545 466.2 356.507 467.06 360.907 465.77C359.301 466.236 357.659 466.666 356.018 467.132C361.326 465.627 353.154 467.67 351.687 467.921C355.948 467.168 347.95 468.315 346.937 468.422C346.483 468.458 343.759 468.637 346.413 468.494C345.086 468.566 343.724 468.602 342.397 468.637C339.463 468.709 336.494 468.637 333.56 468.494C324.619 467.992 313.513 465.878 304.013 463.225C265.874 452.616 231.367 428.351 201.855 402.043C187.501 389.247 173.111 375.09 161.76 360.896C157.569 355.663 145.345 359.534 140.071 360.968C138.5 361.398 118.383 368.387 121.246 372.007H121.212Z" fill="url(#paint0_radial_1948_4211)" fill-opacity="0.1"/>
</g>
<defs>
<radialGradient id="paint0_radial_1948_4211" cx="0" cy="0" r="1" gradientUnits="userSpaceOnUse" gradientTransform="translate(1764.45 -341.858) rotate(160.007) scale(1609.91 2969.37)">
<stop stop-color="#0A65D1"/>
<stop offset="1" stop-color="#00DADE"/>
</radialGradient>
</defs>
</svg>
