<svg width="105" height="115" viewBox="0 0 105 115" fill="none" xmlns="http://www.w3.org/2000/svg">
<g filter="url(#filter0_b_1948_4258)">
<path d="M82.7842 21.5333C75.1023 4.99549 63.7825 4.08075 53.4932 7.41571C47.4765 9.36585 43.9681 12.937 40.9034 16.2932C40.8469 16.5602 40.7322 16.8106 40.5382 17.0334L40.371 17.2297C38.5716 19.2342 36.3253 21.7212 28.5378 25.9331C28.4469 25.9803 28.356 26.0275 28.2599 26.0587C27.5079 26.3024 26.662 25.9725 26.2727 25.2459C25.8367 24.4279 26.147 23.4034 26.96 22.9623C32.0198 20.2208 34.5353 18.304 36.1533 16.7846C32.2576 16.0752 27.9643 15.7257 22.8756 17.375C12.5864 20.7099 3.90371 28.1079 7.18506 46.072C10.4504 64.0414 19.9846 66.2811 25.1624 77.0393C30.3401 87.7975 43.1589 110.292 52.52 107.258C61.8812 104.224 54.2911 90.5343 52.9207 82.8771C51.4757 74.8176 53.9853 70.824 56.486 70.0846C58.9868 69.3451 63.2852 70.9899 66.7464 78.3959C70.0371 85.4308 71.7544 101.024 81.0995 97.9948C90.4447 94.9658 87.9472 69.1259 85.9699 57.3304C83.9925 45.5348 90.4603 38.1086 82.7944 21.5656L82.7842 21.5333Z" fill="url(#paint0_linear_1948_4258)" fill-opacity="0.56"/>
<path d="M40.7411 17.5639L40.7412 17.5641L40.7498 17.554L40.9132 17.362C40.9139 17.3612 40.9145 17.3605 40.9152 17.3597C41.1344 17.1074 41.2758 16.8276 41.3571 16.536C44.3881 13.222 47.8132 9.78231 53.6444 7.8923C58.732 6.24331 64.01 5.6668 68.9417 7.49229C73.8569 9.3117 78.5183 13.5511 82.3182 21.718L82.3187 21.7197L82.3283 21.7499L82.3416 21.7787C86.1322 29.9588 86.424 35.8626 86.0177 41.1926C85.9142 42.5506 85.7628 43.8838 85.6116 45.2159C85.1712 49.0953 84.7317 52.9659 85.4777 57.4159C86.4636 63.2976 87.5768 72.6693 87.2819 80.9346C87.1343 85.0705 86.635 88.8957 85.6097 91.8597C84.5805 94.8348 83.062 96.8331 80.9483 97.5182C78.7609 98.2272 77.0705 97.8436 75.6773 96.7979C74.2511 95.7274 73.0999 93.9341 72.1064 91.7587C71.1164 89.5905 70.3096 87.1048 69.5384 84.6966C69.5086 84.6036 69.4789 84.5107 69.4492 84.4179C68.7153 82.1248 68.0052 79.9059 67.1985 78.1813C63.7047 70.7058 59.2161 68.7558 56.3472 69.6041C54.9011 70.0318 53.5513 71.3657 52.7547 73.5669C51.9568 75.7718 51.6964 78.8796 52.4295 82.9682C52.7658 84.8471 53.4666 87.0716 54.1906 89.3702C54.2193 89.4612 54.248 89.5523 54.2767 89.6435C55.0361 92.0556 55.8114 94.5514 56.2543 96.8969C56.6987 99.2502 56.7944 101.385 56.2493 103.095C55.7169 104.764 54.5606 106.071 52.3688 106.781C50.2509 107.468 47.8637 106.735 45.3144 104.92C42.7743 103.112 40.1679 100.293 37.6694 97.0151C32.6762 90.4638 28.1939 82.1842 25.612 76.8195C23.6599 72.7635 21.0774 69.8739 18.4896 66.9784C17.5989 65.9817 16.7075 64.9843 15.841 63.9384C12.446 59.8407 9.2907 54.8651 7.67607 45.9797L7.67599 45.9793C6.05182 37.0876 7.40076 30.8908 10.3541 26.5171C13.3138 22.134 17.9392 19.5006 23.0268 17.8516C27.574 16.3778 31.4725 16.5317 35.0504 17.104C33.4489 18.478 31.0161 20.1966 26.7246 22.5218L26.7243 22.5219C25.6685 23.0949 25.2668 24.4229 25.8323 25.4839L25.8328 25.4849C26.3353 26.4227 27.4291 26.8535 28.4111 26.5352C28.5474 26.4911 28.6703 26.4271 28.7545 26.3834L28.7654 26.3777L28.7655 26.3777L28.7728 26.3738C36.6133 22.1332 38.9049 19.6095 40.7411 17.5639Z" stroke="white"/>
</g>
<g filter="url(#filter1_i_1948_4258)">
<path d="M58.2673 29.2701L59.5779 33.4011C60.2831 35.624 59.5454 38.073 57.7424 39.4951V39.4951C57.3565 39.7996 56.7761 39.4913 56.7585 39.0003C56.7529 38.8443 56.7435 38.6879 56.7304 38.5313C56.7078 38.2638 56.8182 38.0028 57.0082 37.8126C58.0018 36.8182 58.376 35.3118 57.9385 33.9326L57.2412 31.7345C57.0493 31.1297 56.4044 30.798 55.8008 30.9936L55.5439 31.0769C55.0821 31.2266 54.5888 30.9728 54.442 30.5101V30.5101C54.2952 30.0475 54.5506 29.5511 55.0123 29.4014L57.1819 28.6982C57.6346 28.5514 58.1206 28.8075 58.2673 29.2701ZM35.5327 41.1946L34.8354 38.9966C34.6435 38.3917 34.9773 37.7428 35.5809 37.5472L35.8378 37.4639C36.2996 37.3142 36.5549 36.8178 36.4081 36.3552V36.3552C36.2614 35.8925 35.7681 35.6388 35.3063 35.7884L33.1368 36.4916C32.6841 36.6383 32.436 37.1324 32.5828 37.5951L33.8933 41.7261C34.5985 43.949 36.6076 45.5077 38.8926 45.6049V45.6049C39.3817 45.6257 39.6765 45.0337 39.4084 44.6239C39.3231 44.4937 39.2408 44.3609 39.1614 44.2258C39.0258 43.9949 38.7859 43.8475 38.522 43.8044C37.1415 43.5794 35.9703 42.5739 35.5327 41.1946ZM50.209 48.5122C50.1922 48.5176 50.1755 48.523 50.1587 48.5283C49.1946 48.8349 48.4835 49.7539 48.5017 50.7672V50.7672C48.5261 52.1214 49.8117 53.2604 51.0979 52.8435L51.9779 52.5583C53.2641 52.1414 53.6546 50.4591 52.8954 49.3431V49.3431C52.3272 48.508 51.22 48.1784 50.2593 48.4957C50.2425 48.5013 50.2258 48.5068 50.209 48.5122ZM57.5342 52.6053L46.6046 56.1478C46.152 56.2945 45.9039 56.7885 46.0507 57.2513L46.6177 59.0385C46.7644 59.5011 47.2504 59.7573 47.7032 59.6106L58.6328 56.068C59.0855 55.9213 59.3336 55.4273 59.1868 54.9646L58.6198 53.1773C58.4729 52.7146 57.987 52.4585 57.5342 52.6053ZM50.6539 27.1183L37.5384 31.3693C37.0858 31.516 36.8377 32.0101 36.9845 32.4728L37.177 33.0797C37.511 34.1326 38.6336 34.71 39.6844 34.3694L50.6342 30.8203C51.685 30.4798 52.266 29.3502 51.932 28.2973L51.7395 27.6904C51.5927 27.2277 51.1067 26.9716 50.6539 27.1183ZM39.908 41.6881C41.229 45.8522 45.603 48.1573 49.6774 46.8367C53.7519 45.5161 55.984 41.0698 54.663 36.9057L53.6731 33.7855C53.3391 32.7327 52.2165 32.1552 51.1658 32.4958L40.2159 36.0449C39.1651 36.3855 38.5841 37.5151 38.9181 38.5679L39.908 41.6881Z" fill="url(#paint1_linear_1948_4258)"/>
</g>
<defs>
<filter id="filter0_b_1948_4258" x="-3.51953" y="-4.13672" width="101.349" height="121.672" filterUnits="userSpaceOnUse" color-interpolation-filters="sRGB">
<feFlood flood-opacity="0" result="BackgroundImageFix"/>
<feGaussianBlur in="BackgroundImageFix" stdDeviation="5"/>
<feComposite in2="SourceAlpha" operator="in" result="effect1_backgroundBlur_1948_4258"/>
<feBlend mode="normal" in="SourceGraphic" in2="effect1_backgroundBlur_1948_4258" result="shape"/>
</filter>
<filter id="filter1_i_1948_4258" x="32.541" y="27.0781" width="33.3008" height="36.5742" filterUnits="userSpaceOnUse" color-interpolation-filters="sRGB">
<feFlood flood-opacity="0" result="BackgroundImageFix"/>
<feBlend mode="normal" in="SourceGraphic" in2="BackgroundImageFix" result="shape"/>
<feColorMatrix in="SourceAlpha" type="matrix" values="0 0 0 0 0 0 0 0 0 0 0 0 0 0 0 0 0 0 127 0" result="hardAlpha"/>
<feOffset dx="6" dy="4"/>
<feGaussianBlur stdDeviation="3"/>
<feComposite in2="hardAlpha" operator="arithmetic" k2="-1" k3="1"/>
<feColorMatrix type="matrix" values="0 0 0 0 0.0821181 0 0 0 0 0.34176 0 0 0 0 0.358333 0 0 0 0.25 0"/>
<feBlend mode="normal" in2="shape" result="effect1_innerShadow_1948_4258"/>
</filter>
<linearGradient id="paint0_linear_1948_4258" x1="66.8152" y1="102.625" x2="42.9332" y2="28.9417" gradientUnits="userSpaceOnUse">
<stop stop-color="#ADE4E5"/>
<stop offset="1" stop-color="#E5EFFA"/>
</linearGradient>
<linearGradient id="paint1_linear_1948_4258" x1="53.1679" y1="57.8392" x2="43.9183" y2="29.3015" gradientUnits="userSpaceOnUse">
<stop stop-color="#00CCD1" stop-opacity="0.5"/>
<stop offset="1" stop-color="#0AC5D1"/>
</linearGradient>
</defs>
</svg>
