<svg width="1888" height="1209" viewBox="0 0 1888 1209" fill="none" xmlns="http://www.w3.org/2000/svg">
<path fill-rule="evenodd" clip-rule="evenodd" d="M0 1181.66V1208.99C66.5695 1203.62 132.026 1177.15 183.066 1134.79C243.95 1126.74 301.735 1101.2 353.901 1069.47C445.838 1013.48 527.497 940.416 602.388 862.379C607.128 868.946 612.261 875.291 617.799 881.381C714.51 987.714 882.633 947.114 997.477 898.033C1046.21 877.203 1092.82 851.321 1137.31 822.696C1163.06 806.133 1187.83 788.227 1212.59 770.318C1233.43 755.251 1254.27 740.181 1275.71 725.905C1287.11 718.304 1298.59 710.835 1310.14 703.472C1341.35 732.054 1381.6 748.654 1423.45 757.462C1515.37 776.795 1614.38 763.574 1705.55 746.922C1767.31 735.629 1828.4 719.79 1888 699.574V677.728C1841.03 694.769 1795.05 708.027 1748.67 717.673C1664.23 735.322 1579.24 747.795 1495.8 733.451C1448.23 725.247 1399.6 705.954 1367.14 668.164C1394.91 651.371 1422.91 634.931 1450.91 618.489C1488.78 596.255 1526.65 574.02 1563.97 550.909C1702.56 465.157 1921.65 328.016 1860.52 133.001C1846.44 88.0979 1822.32 40.5133 1779.58 16.877C1733.65 -8.44324 1677.13 0.537369 1629.46 15.505C1521.1 49.6187 1435.29 138.115 1371.67 228.981C1308.05 319.846 1252.47 434.099 1250.85 548.539C1250.16 595.001 1260.38 642.523 1288.86 680.129C1289.35 680.781 1289.85 681.427 1290.35 682.07C1286.06 684.697 1281.79 687.334 1277.52 689.983C1240.61 712.887 1205.09 737.918 1169.59 762.942C1118.47 798.969 1067.38 834.979 1012.18 864.605C992.928 874.958 974.982 883.627 953.858 892.482C947.86 894.997 945.66 895.959 943.43 896.845C941.235 897.718 939.011 898.518 933.107 900.652C928.434 902.336 923.698 904.02 919.024 905.579C918.218 905.848 917.412 906.105 916.611 906.361C915.554 906.698 914.506 907.033 913.478 907.388C912.995 907.556 912.602 907.694 912.286 907.808C911.845 907.93 911.312 908.08 910.674 908.261C909.216 908.665 907.767 909.077 906.32 909.488C903.745 910.22 901.178 910.95 898.585 911.628C897.615 911.896 894.85 912.569 892.471 913.149C890.619 913.6 889.002 913.994 888.646 914.095C882.382 915.421 876.119 916.595 869.855 917.721C872.492 917.232 869.158 917.737 865.907 918.23C864.126 918.5 862.37 918.766 861.633 918.863C857.708 919.299 853.782 919.674 849.794 920.048C848.309 920.192 847.448 920.287 846.98 920.348C846.654 920.337 845.999 920.336 844.809 920.36C843.164 920.385 841.519 920.429 839.874 920.474C837.406 920.542 834.938 920.609 832.47 920.609C817.951 920.609 811.346 920.235 794.895 917.366C782.37 915.183 772.026 912.502 761.37 908.51C739.623 900.403 719.433 888.429 702.048 873.024C681.369 854.75 665.461 831.931 653.794 807.046C657.598 802.83 661.386 798.608 665.158 794.382C747.786 701.832 829.666 601.362 885.686 489.916C886.228 488.84 886.779 487.748 887.337 486.641C900.795 459.959 918.689 424.485 913.603 394.186C907.27 356.797 851.698 367.551 823.704 372.967C821.673 373.36 819.787 373.725 818.076 374.042C755.949 385.517 695.193 412.583 650.452 458.047C613.001 496.028 586.456 542.989 571.189 594.066C549.255 667.4 547.608 753.536 580.126 824.12C549.197 857.858 517.143 890.515 484.136 921.981C437.588 966.385 388.609 1008.67 335.892 1045.71C323.803 1054.19 317.323 1058.56 302.866 1067.48C291.338 1074.59 279.623 1081.39 267.596 1087.68C267.039 1087.98 265.501 1088.77 264.075 1089.5C263.832 1089.63 263.592 1089.75 263.36 1089.87C262.827 1090.12 261.612 1090.72 260.398 1091.32C259.136 1091.94 257.874 1092.56 257.377 1092.8C251.581 1095.54 245.724 1098.16 239.742 1100.66C239.295 1100.84 238.867 1101.01 238.462 1101.17C236.736 1101.78 235.032 1102.42 233.336 1103.06C232.542 1103.37 231.749 1103.67 230.956 1103.96C229.491 1104.51 228.027 1104.98 226.573 1105.45C225.824 1105.69 225.078 1105.93 224.336 1106.18C223.944 1106.27 223.493 1106.39 222.979 1106.52C222.701 1106.59 222.276 1106.67 221.764 1106.77C221.32 1106.43 217.405 1106.6 215.436 1108.34C215.096 1108.41 214.654 1108.49 214.17 1108.58C213.449 1108.67 212.48 1108.8 211.534 1108.93C211.223 1108.97 210.914 1109.01 210.617 1109.05C249.426 1068.8 279.127 1020.68 304.174 970.875C324.613 930.276 342.871 887.493 351.097 842.528C359.322 797.5 352.281 744.303 299.438 734.636C267.908 728.899 233.012 736.944 203.351 747.421C173.502 757.898 145.461 773.178 120.723 792.948C72.554 831.427 37.4714 886.059 27.8128 947.364C19.5873 999.563 30.5546 1062.68 67.2574 1102.78C83.7312 1120.76 104.625 1130.33 127.071 1134.37C115.754 1144.63 103.644 1154.1 90.6873 1162.02C80.7171 1168.14 76.2305 1170.57 67.2574 1174.43C67.4666 1174.35 63.2349 1176.04 61.8678 1176.63C60.1678 1177.23 58.1377 1177.96 58.2842 1177.93C57.8854 1178.08 57.2562 1178.29 56.6514 1178.48C55.8493 1178.7 55.0438 1178.91 54.2362 1179.13C52.972 1179.46 51.7026 1179.8 50.4331 1180.16C56.4171 1178.5 52.6131 1179.36 48.4177 1180.3C47.1692 1180.58 45.8862 1180.87 44.816 1181.1C44.3965 1181.09 40.8736 1181.55 37.9574 1181.94C36.212 1182.16 34.6839 1182.36 34.1688 1182.42C33.9849 1182.43 33.5924 1182.46 33.1508 1182.49C32.2783 1182.55 31.2143 1182.62 31.1889 1182.64C29.5402 1182.7 27.8789 1182.74 26.2455 1182.79L26.068 1182.79C20.8336 1182.92 15.537 1182.79 10.3026 1182.54C7.01302 1182.36 3.55915 1182.06 0 1181.66ZM160.699 1099.35C157.027 1097.28 153.233 1094.75 149.138 1091.61C112.933 1063.92 98.6635 1009.29 97.5419 965.449C96.1086 907.325 121.408 849.949 160.666 808.726C170.075 798.81 180.357 789.767 191.262 781.535C192.712 780.427 194.187 779.366 195.655 778.308C196.584 777.64 197.511 776.973 198.428 776.296C199.118 775.808 200.947 774.605 200.946 774.604C200.946 774.603 200.498 774.896 199.243 775.716C199.427 775.595 199.611 775.472 199.796 775.35C200.569 774.836 201.352 774.317 202.167 773.864C207.636 770.519 213.164 767.352 218.867 764.305C219.472 764.029 220.29 763.664 221.359 763.2C223.34 762.35 227.941 761.002 227.939 760.994C227.937 760.989 226.584 761.377 222.73 762.451C223.084 762.353 223.971 761.982 225.033 761.537C225.426 761.372 225.844 761.197 226.268 761.022C227.179 760.801 228.108 760.559 229.033 760.31C229.152 760.291 229.276 760.27 229.407 760.248C229.738 760.237 230.107 760.223 230.519 760.206C230.547 760.205 230.575 760.204 230.602 760.202C230.676 760.204 230.753 760.205 230.831 760.206H234.191C235.539 760.4 236.734 760.56 237.814 760.705C245.002 761.669 247.091 761.95 255.32 766.817C262.798 771.245 267.471 775.922 271.771 783.032C283.86 803.113 283.673 828.683 280.682 851.134C275.323 891.11 259.433 929.777 242.297 965.948C220.196 1012.76 194.308 1059.49 160.699 1099.35ZM230.769 759.645C230.626 759.461 229.838 759.664 228.802 760.031C228.837 760.029 228.872 760.026 228.907 760.023C229.578 759.872 230.283 759.728 230.769 759.645ZM227.452 760.542C227.142 760.665 226.825 760.794 226.509 760.923C227.195 760.752 227.957 760.557 228.645 760.372C228.109 760.456 227.72 760.511 227.452 760.542ZM219.303 764.073C219.188 764.135 219.077 764.194 218.97 764.25C219.081 764.191 219.192 764.132 219.303 764.073ZM218.853 764.312C218.058 764.727 217.529 764.969 217.464 764.986C217.398 765.002 217.796 764.795 218.853 764.312ZM215.305 1108.46C215.287 1108.48 215.27 1108.5 215.253 1108.51C215.27 1108.5 215.289 1108.48 215.31 1108.46C215.308 1108.46 215.307 1108.46 215.305 1108.46ZM215.321 1108.45C215.369 1108.41 215.425 1108.37 215.488 1108.33C215.612 1108.31 215.722 1108.29 215.813 1108.27C216.27 1108.17 216.732 1108.07 217.197 1107.97C218.254 1107.74 219.323 1107.5 220.362 1107.33C221.58 1107.11 221.938 1106.9 221.764 1106.77C221.548 1106.81 221.316 1106.85 221.074 1106.89C219.127 1107.23 216.481 1107.7 215.488 1108.33C215.471 1108.34 215.454 1108.34 215.436 1108.34C215.396 1108.38 215.356 1108.42 215.316 1108.45C215.318 1108.45 215.319 1108.45 215.321 1108.45ZM234.923 1102.49C234.702 1102.55 235.639 1102.18 238.355 1101.22C236.484 1101.96 235.141 1102.43 234.923 1102.49ZM636.962 759.379C674.552 714.641 710.137 668.255 743.362 620.446C772.275 578.848 800.067 535.754 821.441 489.791C822.161 488.249 822.902 486.676 823.656 485.073C834.532 461.982 848.193 432.977 840.384 408.717C839.699 406.409 838.639 404.289 837.456 402.231C836.71 400.937 836.505 400.46 836.456 400.313C836.447 400.402 836.303 400.496 835.399 399.798C834.412 399.03 833.361 398.412 832.308 397.793C831.566 397.357 830.824 396.921 830.103 396.431C829.634 396.127 829.303 395.89 829.077 395.707C828.712 395.737 828.064 395.705 826.987 395.558C826.403 395.478 825.97 395.409 825.659 395.349C825.249 395.377 824.741 395.405 824.12 395.433C822.549 395.541 821.024 395.603 819.506 395.658C819.426 395.666 819.345 395.674 819.26 395.682C818.212 395.789 817.156 395.889 816.099 395.989C814.075 396.18 812.043 396.372 810.037 396.618C808.768 396.752 807.517 396.921 806.264 397.098C806.157 397.124 806.044 397.151 805.925 397.179C802.982 397.93 799.88 398.467 796.864 398.987C796.43 399.113 795.921 399.258 795.331 399.424C793.577 399.912 792.109 400.351 791.151 400.644C788.686 401.521 786.183 402.402 783.679 403.166C783.573 403.198 783.479 403.226 783.397 403.25C783.074 403.392 782.712 403.551 782.308 403.727C780.999 404.289 779.706 404.866 778.413 405.442C777.12 406.019 775.827 406.596 774.519 407.158C773.808 407.467 773.264 407.699 772.855 407.867C772.48 408.083 771.984 408.362 771.341 408.717C765.857 411.773 760.498 414.828 755.139 418.071C753.878 418.837 753.223 419.215 752.917 419.376C752.608 419.618 752.016 420.059 750.964 420.815C748.471 422.624 745.979 424.433 743.486 426.304C723.671 441.334 708.902 456.488 694.383 475.759C635.559 553.965 613.375 661.545 636.307 756.714C636.521 757.602 636.739 758.491 636.962 759.379ZM802.996 397.553C803.025 397.55 803.054 397.546 803.082 397.542C803.046 397.547 803.017 397.551 802.996 397.553ZM1350.84 645.688C1365.18 637.192 1379.55 628.741 1393.91 620.29C1447.65 588.68 1501.39 557.071 1553.69 523.094C1629.46 473.888 1708.98 417.884 1759.39 341.238C1780.01 309.868 1795.22 274.382 1798.58 236.714C1801.82 199.918 1793.91 163.809 1780.51 129.695C1765.12 90.4678 1740.76 52.1133 1700.44 35.2747C1698.38 34.4639 1696.26 33.6532 1694.15 32.9048C1693.27 32.5849 1692.77 32.3933 1692.51 32.2843C1692.27 32.2391 1691.75 32.1153 1690.72 31.8446C1686.85 30.8468 1682.93 29.9736 1678.94 29.35C1677.09 29.0486 1675.18 28.8364 1673.34 28.6312C1672.51 28.5393 1671.69 28.4487 1670.9 28.3522C1670.89 28.3504 1670.87 28.3487 1670.86 28.3471C1670.52 28.3503 1670.1 28.3522 1669.59 28.3522C1668.48 28.3522 1666.11 28.5072 1663.86 28.6538C1659.42 28.9434 1655.48 29.2001 1662.8 28.1651C1660.31 28.4769 1657.63 28.7263 1655.07 28.9134C1654.84 28.928 1654.64 28.9395 1654.46 28.9482C1654.3 28.9673 1654.13 28.9873 1653.95 29.0082C1653.86 29.0376 1653.75 29.0684 1653.64 29.1006C1653.05 29.2877 1652.44 29.428 1651.83 29.5683C1651.23 29.7086 1650.62 29.8489 1650.03 30.036C1649.72 30.1275 1649.44 30.2113 1649.18 30.2879C1647.75 30.7819 1646.31 31.2593 1644.88 31.7325C1644.4 31.8949 1643.91 32.0569 1643.42 32.2188C1643.1 32.3283 1642.8 32.4285 1642.53 32.5201C1641.57 32.9503 1640.58 33.3485 1639.59 33.7467C1638.47 34.1989 1637.35 34.651 1636.26 35.1499C1634.54 35.8929 1632.84 36.6849 1631.14 37.4798C1630.13 37.9527 1629.12 38.4266 1628.09 38.8919C1627.79 39.0291 1627.53 39.1507 1627.29 39.2579C1626.96 39.4429 1626.55 39.672 1626.04 39.9521C1624.75 40.6571 1623.47 41.3521 1622.18 42.0457C1618.93 43.8061 1615.69 45.5568 1612.51 47.4359C1607.16 50.5541 1601.92 53.8595 1596.75 57.2272C1595.96 57.7441 1595.52 58.0197 1595.31 58.1482C1594.99 58.3823 1594.46 58.7607 1593.63 59.3476C1591.08 61.0938 1588.59 62.84 1586.09 64.6486C1565.28 79.6786 1545.84 96.5172 1527.46 114.478C1448.5 191.562 1384.76 291.969 1348.55 397.117C1322.04 474.176 1306.46 572.545 1350.84 645.688ZM1651.47 29.4558C1651.72 29.3443 1651.12 29.5118 1650.28 29.7719C1649.52 29.9778 1648.98 30.1332 1648.97 30.1608C1649.19 29.752 1650.8 29.4383 1652.45 29.2038C1652.12 29.2873 1651.79 29.3724 1651.47 29.4558Z" fill="url(#paint0_radial_1948_3994)" fill-opacity="0.1"/>
<defs>
<radialGradient id="paint0_radial_1948_3994" cx="0" cy="0" r="1" gradientUnits="userSpaceOnUse" gradientTransform="translate(2563.26 -227.468) rotate(160.464) scale(2864.13 5181.53)">
<stop stop-color="#0A65D1"/>
<stop offset="1" stop-color="#00DADE"/>
</radialGradient>
</defs>
</svg>
